<svg id="svg-cart" viewBox="-5.5 -3 40 40" fill="none" xmlns="http://www.w3.org/2000/svg">
<path d="M1 7.5625H27.89V31.3225C27.89 33.0512 26.4887 34.4525 24.76 34.4525H4.13C2.40135 34.4525 1 33.0512 1 31.3225V7.5625Z" stroke="currentColor" stroke-width="3"/>
<path d="M8.94 5.8125C8.94 2.77493 11.4024 0.3125 14.44 0.3125C17.4776 0.3125 19.94 2.77493 19.94 5.8125V11.3125H8.94V5.8125Z"/>
<path d="M6.94 5.8125C6.94 1.67036 10.2979 -1.6875 14.44 -1.6875C18.5821 -1.6875 21.94 1.67036 21.94 5.8125H17.94C17.94 3.8795 16.373 2.3125 14.44 2.3125C12.507 2.3125 10.94 3.8795 10.94 5.8125H6.94ZM19.94 11.3125H8.94H19.94ZM6.94 11.3125V5.8125C6.94 1.67036 10.2979 -1.6875 14.44 -1.6875V2.3125C12.507 2.3125 10.94 3.8795 10.94 5.8125V11.3125H6.94ZM14.44 -1.6875C18.5821 -1.6875 21.94 1.67036 21.94 5.8125V11.3125H17.94V5.8125C17.94 3.8795 16.373 2.3125 14.44 2.3125V-1.6875Z" fill="currentColor"/>
</svg>
