<svg id="svg-children" viewBox="0 0 35 35" fill="currentColor" xmlns="http://www.w3.org/2000/svg">
<path d="M0.00484467 21.4989C0.0938791 21.2711 0.177349 21.0489 0.255254 20.8324C0.333159 20.616 0.427758 20.4052 0.539051 20.2001C0.71712 19.8355 0.961965 19.5279 1.27359 19.2773C1.58521 19.0266 1.93021 18.8557 2.30861 18.7646C3.4438 18.4228 4.57899 18.0924 5.71418 17.7734C6.84937 17.4543 7.97343 17.1353 9.08636 16.8163C9.15313 16.7935 9.21991 16.7708 9.28668 16.748C9.35346 16.7252 9.40911 16.7024 9.45362 16.6796C9.20878 16.3606 8.9695 16.0416 8.73578 15.7226C8.50207 15.4036 8.28505 15.0732 8.08472 14.7314C7.68406 14.0706 7.37244 13.3471 7.14986 12.561C6.92727 11.7748 6.81598 10.9488 6.81598 10.0829C6.81598 9.99178 6.82154 9.89494 6.83267 9.7924C6.8438 9.68986 6.84937 9.58162 6.84937 9.46769V9.50187C6.84937 9.47908 6.84937 9.46199 6.84937 9.4506C6.84937 9.43921 6.84937 9.42212 6.84937 9.39933C6.84937 9.2854 6.81598 9.18856 6.7492 9.1088C6.68243 9.02905 6.60452 8.97778 6.51549 8.955C5.69192 8.65877 5.0186 8.14038 4.49552 7.39982C3.97244 6.65926 3.7109 5.81046 3.7109 4.85343C3.7109 4.21541 3.83333 3.61727 4.07817 3.059C4.32301 2.50073 4.66802 2.01652 5.11319 1.60636C5.49159 1.26457 5.92563 0.996825 6.41532 0.80314C6.90501 0.609455 7.42809 0.512613 7.98456 0.512613C8.4965 0.512613 8.98619 0.603759 9.45362 0.78605C9.92105 0.968342 10.344 1.2076 10.7224 1.50382C10.7891 1.57218 10.8615 1.64054 10.9394 1.7089C11.0173 1.77726 11.0896 1.84562 11.1564 1.91398C12.2248 1.27596 13.2821 0.797444 14.3283 0.478433C15.3744 0.159423 16.4261 -8.23736e-05 17.4834 -8.23736e-05C18.5407 -8.23736e-05 19.5924 0.159423 20.6386 0.478433C21.707 0.797444 22.7643 1.27596 23.8104 1.91398C24.0553 1.66333 24.3279 1.43546 24.6284 1.23039C24.9289 1.02531 25.2461 0.865803 25.58 0.751871L25.6134 0.717691C27.0824 0.216389 28.4291 0.44995 29.6533 1.41837C30.8775 2.3868 31.4229 3.65714 31.2893 5.22941C31.2003 6.14087 30.9109 6.91561 30.4212 7.55363C29.9315 8.19165 29.2638 8.67017 28.418 8.98918C28.3512 8.98918 28.2844 9.02336 28.2176 9.09171C28.1509 9.16007 28.1175 9.23983 28.1175 9.33097C28.1175 9.35376 28.123 9.37085 28.1342 9.38224C28.1453 9.39364 28.1509 9.41072 28.1509 9.43351C28.1509 9.52466 28.1509 9.6158 28.1509 9.70695C28.1509 9.79809 28.1509 9.90063 28.1509 10.0146C28.1509 11.2678 27.9227 12.4527 27.4664 13.5693C27.0101 14.6858 26.3924 15.6656 25.6134 16.5087C25.5911 16.5315 25.5689 16.5543 25.5466 16.5771C25.5243 16.5999 25.5021 16.634 25.4798 16.6796C25.836 16.7935 26.1921 16.9018 26.5482 17.0043C26.9044 17.1069 27.2494 17.2037 27.5833 17.2948C28.4068 17.5227 29.2304 17.7563 30.054 17.9955C30.8775 18.2348 31.7122 18.4683 32.5581 18.6962C33.4261 18.9241 34.0661 19.4311 34.4779 20.2172C34.8896 21.0033 35.051 21.7496 34.962 22.456C34.873 23.2991 34.5168 24.0111 33.8936 24.5922C33.2703 25.1733 32.5358 25.4638 31.69 25.4638C31.69 25.4638 31.6844 25.4638 31.6733 25.4638C31.6621 25.4638 31.6566 25.4638 31.6566 25.4638C31.345 25.441 31.0445 25.4011 30.7551 25.3442C30.4657 25.2872 30.1875 25.2245 29.9204 25.1562H29.9872C29.6756 25.0878 29.3584 25.0138 29.0356 24.934C28.7129 24.8542 28.3846 24.7802 28.0507 24.7118C28.1175 24.803 28.1731 24.8998 28.2176 25.0024C28.2621 25.1049 28.3178 25.179 28.3846 25.2245C29.0301 25.6803 29.5531 26.2442 29.9538 26.9164C30.3545 27.5886 30.5882 28.3349 30.6549 29.1552V29.1894C30.744 30.1464 30.6438 31.0351 30.3545 31.8554C30.0651 32.6757 29.5531 33.4163 28.8186 34.0771C28.507 34.3505 28.1397 34.5727 27.7168 34.7436C27.2939 34.9145 26.8376 34.9999 26.3479 34.9999C25.925 34.9999 25.5243 34.9373 25.1459 34.8119C24.7675 34.6866 24.4225 34.4986 24.1109 34.248C24.0441 34.2024 23.9718 34.1682 23.8939 34.1454C23.816 34.1226 23.7325 34.1112 23.6435 34.1112C19.5479 34.1112 15.4412 34.1112 11.3233 34.1112C11.3233 34.1112 11.3122 34.1112 11.29 34.1112C11.2232 34.1112 11.162 34.1169 11.1063 34.1283C11.0507 34.1397 11.0006 34.1568 10.9561 34.1796C9.99896 34.9088 8.98063 35.1594 7.90109 34.9316C6.82154 34.7037 5.94789 34.0885 5.28013 33.0859C4.43431 31.8326 4.13382 30.4141 4.37866 28.8305C4.62351 27.2468 5.35804 26.0562 6.58226 25.2587C6.6713 25.2131 6.73807 25.1391 6.78259 25.0365C6.82711 24.934 6.88275 24.8372 6.94953 24.746L6.88275 24.6435C6.43758 24.7574 6.00354 24.8713 5.58063 24.9853C5.15771 25.0992 4.7348 25.2245 4.31189 25.3612C4.15607 25.4068 4.00026 25.441 3.84445 25.4638C3.68864 25.4866 3.53283 25.498 3.37702 25.498C2.62023 25.498 1.94691 25.2644 1.35706 24.7973C0.767202 24.3302 0.360982 23.7434 0.138396 23.037V23.0028C0.116138 22.9345 0.0938791 22.8604 0.0716205 22.7807C0.0493619 22.7009 0.0271033 22.6269 0.00484467 22.5585V21.4989ZM17.3999 19.038C18.7132 19.0152 19.9319 18.7987 21.0559 18.3886C22.18 17.9784 23.2317 17.3518 24.2111 16.5087C24.9679 15.8479 25.5911 15.0959 26.0808 14.2528C26.5482 13.387 26.871 12.4869 27.0491 11.5527C27.2271 10.6184 27.2383 9.66138 27.0824 8.68156C26.9266 7.72453 26.6039 6.80168 26.1142 5.913C25.1793 4.31795 24.0052 3.12166 22.5918 2.32414C21.1783 1.52661 19.5813 1.09367 17.8006 1.02531C17.7338 1.02531 17.6559 1.02531 17.5669 1.02531C17.4779 1.02531 17.3888 1.02531 17.2998 1.02531C16.031 1.02531 14.8346 1.25317 13.7106 1.7089C12.5865 2.16463 11.5904 2.79126 10.7224 3.58878C9.8988 4.31795 9.24217 5.16105 8.75248 6.11808C8.26279 7.05233 7.9623 8.02645 7.851 9.04044C7.73971 10.0544 7.80649 11.0741 8.05133 12.0995C8.31843 13.1249 8.77474 14.0819 9.42024 14.9706C10.4219 16.3606 11.6071 17.3746 12.976 18.0126C14.345 18.6506 15.8196 18.9924 17.3999 19.038ZM24.3112 17.7734C23.1761 18.5253 22.0409 19.095 20.9057 19.4823C19.7482 19.8697 18.6019 20.0634 17.4667 20.0634C16.3315 20.0634 15.1963 19.8697 14.0612 19.4823C12.9482 19.095 11.8242 18.5253 10.689 17.7734L8.01794 24.6435C8.10698 24.6435 8.18488 24.6435 8.25166 24.6435C8.31843 24.6435 8.38521 24.6435 8.45199 24.6435C8.47424 24.6435 8.50207 24.6435 8.53546 24.6435C8.56884 24.6435 8.59667 24.6435 8.61893 24.6435C9.26443 24.6435 9.85428 24.7859 10.3885 25.0707C10.9227 25.3556 11.3679 25.7486 11.724 26.2499C12.325 27.0019 12.6978 27.8051 12.8425 28.6596C12.9872 29.5141 12.9482 30.3971 12.7256 31.3085C12.6143 31.6731 12.5031 32.0035 12.3918 32.2997C12.2805 32.5959 12.158 32.8808 12.0245 33.1542L12.0579 33.0859H23.0091C22.9869 33.0403 22.9646 33.0004 22.9423 32.9662C22.9201 32.932 22.909 32.9036 22.909 32.8808C22.6418 32.4478 22.4304 31.975 22.2746 31.4623C22.1188 30.9496 22.0409 30.4084 22.0409 29.8388C22.0409 29.5426 22.0631 29.252 22.1076 28.9672C22.1522 28.6824 22.2189 28.4032 22.308 28.1298V28.164C22.5528 27.2525 22.959 26.4892 23.5266 25.8739C24.0942 25.2587 24.8566 24.8599 25.8137 24.6777C25.9027 24.6777 25.9973 24.672 26.0975 24.6606C26.1977 24.6492 26.3034 24.6435 26.4147 24.6435C26.5037 24.6435 26.6039 24.6492 26.7152 24.6606C26.8265 24.672 26.9266 24.6777 27.0157 24.6777H26.9823C26.5371 23.5155 26.0919 22.3591 25.6468 21.2084C25.2016 20.0577 24.7564 18.9127 24.3112 17.7734ZM29.7201 29.873C29.6978 29.2577 29.6032 28.6824 29.4363 28.1469C29.2693 27.6114 28.9856 27.1272 28.5849 26.6943C28.3178 26.3525 27.995 26.0904 27.6166 25.9081C27.2383 25.7258 26.8265 25.6347 26.3813 25.6347C26.0029 25.6347 25.6412 25.7087 25.2962 25.8569C24.9512 26.005 24.6451 26.2043 24.378 26.455C23.5322 27.2525 23.0926 28.3349 23.0592 29.7021C23.0258 31.0693 23.4209 32.1744 24.2445 33.0175C24.7787 33.5644 25.3741 33.8834 26.0307 33.9745C26.6873 34.0657 27.3162 33.9176 27.9171 33.5302C28.5626 33.0972 29.0134 32.5618 29.2693 31.9237C29.5253 31.2857 29.6756 30.6021 29.7201 29.873ZM11.9577 29.873C11.9355 29.2577 11.8409 28.6824 11.6739 28.1469C11.507 27.6114 11.2232 27.1272 10.8225 26.6943C10.5554 26.3752 10.2327 26.1189 9.85428 25.9252C9.47588 25.7315 9.0641 25.6347 8.61893 25.6347C8.19601 25.6347 7.80092 25.7201 7.43365 25.891C7.06639 26.0619 6.7492 26.3069 6.4821 26.6259C5.68079 27.469 5.28013 28.5343 5.28013 29.8217C5.28013 31.1091 5.68079 32.1858 6.4821 33.0517C7.06082 33.6669 7.72302 33.9859 8.46868 34.0087C9.21434 34.0315 9.90992 33.7694 10.5554 33.2226C11.0451 32.7668 11.3957 32.2485 11.6071 31.6674C11.8186 31.0863 11.9355 30.4882 11.9577 29.873ZM25.3129 17.6366C25.6913 18.5937 26.0641 19.545 26.4314 20.4906C26.7986 21.4363 27.1715 22.3762 27.5499 23.3105C27.5721 23.356 27.6055 23.3959 27.65 23.4301C27.6946 23.4643 27.7391 23.4814 27.7836 23.4814C28.3401 23.6637 28.9021 23.8403 29.4697 24.0111C30.0373 24.182 30.5993 24.3359 31.1558 24.4726C31.2448 24.4726 31.3338 24.4783 31.4229 24.4897C31.5119 24.5011 31.6009 24.5068 31.69 24.5068C32.2464 24.5068 32.7417 24.3245 33.1757 23.9599C33.6098 23.5953 33.8713 23.1396 33.9603 22.5927V22.5585C34.1162 21.8749 34.0104 21.2483 33.6432 20.6786C33.2759 20.109 32.7473 19.733 32.0572 19.5507L29.3528 18.7646L25.3129 17.6366ZM9.68734 17.6366C8.50763 17.9784 7.34462 18.3088 6.1983 18.6278C5.05198 18.9469 3.91123 19.2773 2.77604 19.6191C2.13054 19.8014 1.62972 20.2001 1.27359 20.8153C0.917448 21.4306 0.839542 22.0572 1.03987 22.6952C1.19568 23.2193 1.48504 23.6523 1.90796 23.9941C2.33087 24.3359 2.82056 24.5068 3.37702 24.5068C3.51058 24.5068 3.64413 24.4954 3.77768 24.4726C3.91123 24.4498 4.03365 24.4156 4.14495 24.37C4.63463 24.2333 5.12432 24.0966 5.61401 23.9599C6.1037 23.8232 6.59339 23.6864 7.08308 23.5497C7.19437 23.5269 7.28897 23.4757 7.36688 23.3959C7.44478 23.3162 7.49487 23.2307 7.51712 23.1396C7.73971 22.5471 7.96786 21.9604 8.20158 21.3793C8.43529 20.7983 8.66344 20.2115 8.88603 19.6191C9.01958 19.3 9.15313 18.981 9.28668 18.662C9.42024 18.343 9.55379 18.0012 9.68734 17.6366ZM27.9839 8.06632C28.5626 7.97518 29.0802 7.63908 29.5365 7.05802C29.9928 6.47697 30.2543 5.82186 30.3211 5.09269C30.3878 4.38631 30.2153 3.71411 29.8036 3.07609C29.3918 2.43807 28.8409 1.98234 28.1509 1.7089C27.5276 1.48104 26.871 1.45255 26.181 1.62345C25.4909 1.79435 24.979 2.11906 24.6451 2.59757L25.3797 3.24699C25.58 3.04191 25.8193 2.87101 26.0975 2.73429C26.3757 2.59757 26.6707 2.52921 26.9823 2.52921C27.3607 2.52921 27.7057 2.61466 28.0173 2.78556C28.3289 2.95646 28.5849 3.19002 28.7852 3.48625C28.941 3.66854 29.0579 3.87362 29.1358 4.10148C29.2137 4.32934 29.2527 4.58 29.2527 4.85343C29.2527 4.92179 29.2527 4.99015 29.2527 5.05851C29.2527 5.12687 29.2415 5.19523 29.2193 5.26359C29.1525 5.69653 28.98 6.07251 28.7018 6.39152C28.4235 6.71053 28.0952 6.93839 27.7168 7.07511H27.6834L27.9839 8.06632ZM7.28341 7.07511C6.4821 6.73332 5.99797 6.21492 5.83104 5.51994C5.6641 4.82495 5.73644 4.21541 6.04806 3.69132C6.24838 3.34953 6.52105 3.07039 6.86606 2.85392C7.21107 2.63745 7.5839 2.52921 7.98456 2.52921C8.31843 2.52921 8.62449 2.59188 8.90272 2.7172C9.18096 2.84253 9.42024 3.01912 9.62056 3.24699L10.3551 2.56339C10.0657 2.24438 9.71516 1.98804 9.30338 1.79435C8.89159 1.60067 8.45199 1.50382 7.98456 1.50382C7.73971 1.50382 7.50043 1.53231 7.26672 1.58927C7.033 1.64624 6.81598 1.7203 6.61565 1.81144C5.99241 2.10767 5.49159 2.56909 5.11319 3.19572C4.7348 3.82235 4.59012 4.46606 4.67915 5.12687C4.76819 5.85604 5.03529 6.49975 5.48046 7.05802C5.92563 7.61629 6.43758 7.95239 7.01631 8.06632L7.28341 7.07511ZM8.91942 3.96476C8.8749 3.91919 8.83595 3.87931 8.80256 3.84513C8.76917 3.81095 8.73022 3.78247 8.6857 3.75968C8.57441 3.69132 8.46312 3.63436 8.35182 3.58878C8.24053 3.54321 8.11811 3.52043 7.98456 3.52043C7.73971 3.52043 7.52269 3.58309 7.33349 3.70841C7.14429 3.83374 6.99405 3.98755 6.88275 4.16984C6.83824 4.28377 6.79928 4.3977 6.7659 4.51164C6.73251 4.62557 6.71581 4.7395 6.71581 4.85343C6.71581 5.10408 6.77703 5.33765 6.89945 5.55412C7.02187 5.77059 7.18325 5.9244 7.38357 6.01554L7.41696 6.04972C7.48374 6.07251 7.54495 6.0896 7.60059 6.10099C7.65624 6.11239 7.70632 6.06112 7.75084 5.94718C7.92891 5.62817 8.11811 5.30347 8.31843 4.97306C8.51876 4.64266 8.71909 4.30656 8.91942 3.96476ZM26.0808 3.99894C26.2589 4.31795 26.4425 4.63127 26.6317 4.93888C26.8209 5.2465 27.0045 5.54842 27.1826 5.84464C27.2494 6.00415 27.3217 6.0839 27.3996 6.0839C27.4775 6.0839 27.5721 6.04972 27.6834 5.98136C27.8615 5.86743 28.0062 5.71362 28.1175 5.51994C28.2288 5.32625 28.2844 5.10408 28.2844 4.85343C28.2844 4.83065 28.2844 4.80786 28.2844 4.78507C28.2844 4.76229 28.2844 4.7395 28.2844 4.71671C28.2399 4.44328 28.1397 4.20972 27.9839 4.01603C27.8281 3.82235 27.6278 3.67993 27.3829 3.58878C27.3162 3.566 27.2494 3.54891 27.1826 3.53752C27.1158 3.52612 27.0491 3.52043 26.9823 3.52043C26.8042 3.52043 26.6373 3.5603 26.4815 3.64005C26.3256 3.71981 26.1921 3.82804 26.0808 3.96476V3.99894ZM17.5001 17.2948C16.7433 17.2948 16.0255 17.1752 15.3466 16.936C14.6677 16.6967 14.05 16.3036 13.4936 15.7568C12.67 14.9364 12.2693 13.9737 12.2916 12.8686C12.3139 11.7634 12.7702 10.8121 13.6605 10.0146C14.6621 9.12589 15.8808 8.65877 17.3165 8.6132C18.7522 8.56763 19.9931 8.955 21.0392 9.77531C22.2412 10.7323 22.7865 11.9001 22.6752 13.2787C22.5639 14.6573 21.8405 15.734 20.505 16.5087C20.0821 16.7594 19.6202 16.953 19.1194 17.0898C18.6186 17.2265 18.1011 17.2948 17.5669 17.2948C17.5446 17.2948 17.5279 17.2948 17.5168 17.2948C17.5057 17.2948 17.5001 17.2948 17.5001 17.2948ZM20.1044 10.3905C19.9486 11.1197 19.6536 11.7008 19.2196 12.1337C18.7855 12.5666 18.268 12.7945 17.667 12.8173C16.9325 12.8401 16.3427 12.6578 15.8975 12.2704C15.4523 11.8831 15.1073 11.2564 14.8625 10.3905C14.0389 10.8691 13.5214 11.5811 13.3099 12.5268C13.0985 13.4724 13.4268 14.344 14.2949 15.1415C15.1407 15.9163 16.1869 16.3093 17.4333 16.3207C18.6798 16.3321 19.7371 15.9618 20.6052 15.2099C21.4288 14.5035 21.7905 13.6547 21.6903 12.6635C21.5901 11.6723 21.0615 10.9146 20.1044 10.3905ZM17.5001 9.57023C17.2553 9.6158 17.0215 9.65568 16.799 9.68986C16.5764 9.72404 16.3538 9.76392 16.1312 9.80949C16.0199 9.80949 15.9476 9.83797 15.9142 9.89494C15.8808 9.9519 15.8641 10.026 15.8641 10.1171C15.8641 10.5956 16.0255 11.0001 16.3482 11.3305C16.671 11.6609 17.0549 11.8261 17.5001 11.8261C17.9453 11.8261 18.3292 11.6609 18.652 11.3305C18.9747 11.0001 19.1361 10.5956 19.1361 10.1171C19.1139 10.0487 19.086 9.99178 19.0526 9.94621C19.0193 9.90063 18.9692 9.85506 18.9024 9.80949C18.6798 9.76392 18.4517 9.71834 18.2179 9.67277C17.9842 9.6272 17.745 9.59302 17.5001 9.57023ZM12.7256 7.86125C12.2805 7.86125 11.9021 7.70174 11.5904 7.38273C11.2788 7.06372 11.123 6.67635 11.123 6.22062C11.123 5.76489 11.2788 5.37752 11.5904 5.05851C11.9021 4.7395 12.2805 4.58 12.7256 4.58C13.1708 4.58 13.5492 4.7395 13.8608 5.05851C14.1724 5.37752 14.3283 5.76489 14.3283 6.22062C14.3283 6.67635 14.1724 7.06372 13.8608 7.38273C13.5492 7.70174 13.1708 7.86125 12.7256 7.86125ZM13.3266 6.15226C13.3266 5.99276 13.271 5.85034 13.1597 5.72502C13.0484 5.59969 12.9037 5.53703 12.7256 5.53703C12.5476 5.53703 12.4029 5.59969 12.2916 5.72502C12.1803 5.85034 12.1247 6.00415 12.1247 6.18644C12.1247 6.36873 12.1803 6.52254 12.2916 6.64787C12.4029 6.77319 12.5476 6.84725 12.7256 6.87003C12.9037 6.84725 13.0484 6.7675 13.1597 6.63078C13.271 6.49406 13.3266 6.33455 13.3266 6.15226ZM22.2746 4.58C22.2746 4.58 22.2801 4.58 22.2913 4.58C22.3024 4.58 22.308 4.58 22.308 4.58C22.7531 4.58 23.1315 4.7395 23.4432 5.05851C23.7548 5.37752 23.9106 5.76489 23.9106 6.22062C23.9106 6.67635 23.7548 7.06372 23.4432 7.38273C23.1315 7.70174 22.7531 7.86125 22.308 7.86125C21.8628 7.86125 21.4844 7.70174 21.1728 7.38273C20.8612 7.06372 20.7053 6.67635 20.7053 6.22062C20.7053 6.22062 20.7053 6.20923 20.7053 6.18644C20.7053 5.73071 20.8556 5.34904 21.1561 5.04142C21.4566 4.7338 21.8294 4.58 22.2746 4.58ZM22.8756 6.15226C22.8756 5.99276 22.8199 5.85034 22.7086 5.72502C22.5973 5.59969 22.4526 5.53703 22.2746 5.53703C22.0965 5.53703 21.9518 5.59969 21.8405 5.72502C21.7292 5.85034 21.6736 5.99276 21.6736 6.15226C21.6736 6.33455 21.7348 6.49406 21.8572 6.63078C21.9797 6.7675 22.1299 6.84725 22.308 6.87003C22.4638 6.82446 22.5973 6.73901 22.7086 6.61369C22.8199 6.48836 22.8756 6.33455 22.8756 6.15226ZM17.5001 22.9003C17.8562 22.4446 18.2625 22.1597 18.7188 22.0458C19.1751 21.9319 19.6481 21.9433 20.1378 22.08C20.8278 22.2851 21.3175 22.6781 21.6068 23.2592C21.8962 23.8403 21.9518 24.5068 21.7738 25.2587C21.618 25.8739 21.3842 26.4493 21.0726 26.9848C20.761 27.5203 20.3937 28.0159 19.9708 28.4716C19.6369 28.859 19.2975 29.2292 18.9525 29.5824C18.6075 29.9356 18.268 30.2831 17.9342 30.6249C17.7783 30.7844 17.6392 30.8699 17.5168 30.8813C17.3944 30.8927 17.2553 30.8186 17.0995 30.6591C16.543 30.1122 15.9921 29.5483 15.4468 28.9672C14.9014 28.3861 14.4173 27.7538 13.9944 27.0702C13.7273 26.7056 13.5269 26.2955 13.3934 25.8398C13.2598 25.384 13.1931 24.9055 13.1931 24.4042C13.1931 24.3814 13.1931 24.3586 13.1931 24.3359C13.1931 24.3131 13.1931 24.2903 13.1931 24.2675C13.2153 23.675 13.4323 23.1624 13.8441 22.7294C14.2559 22.2965 14.7512 22.0458 15.3299 21.9775C15.7528 21.9547 16.1479 22.0059 16.5152 22.1313C16.8824 22.2566 17.2107 22.5129 17.5001 22.9003ZM17.5001 29.3261C17.7672 29.0299 18.0343 28.7507 18.3014 28.4887C18.5685 28.2266 18.8356 27.9589 19.1027 27.6855C19.2808 27.4804 19.4644 27.2639 19.6536 27.0361C19.8428 26.8082 20.0153 26.5689 20.1711 26.3183L20.2045 26.2841C20.2936 26.1474 20.3826 25.9936 20.4716 25.8227C20.5607 25.6518 20.6386 25.4752 20.7053 25.2929V25.2587C20.8612 24.8713 20.8779 24.5125 20.7554 24.182C20.633 23.8516 20.416 23.5953 20.1044 23.413C19.9931 23.3674 19.8818 23.3276 19.7705 23.2934C19.6592 23.2592 19.5368 23.2421 19.4032 23.2421C19.1584 23.2421 18.9302 23.3048 18.7188 23.4301C18.5073 23.5554 18.3348 23.7206 18.2013 23.9257C18.1567 24.0168 18.1122 24.1023 18.0677 24.182C18.0232 24.2618 17.9675 24.3359 17.9008 24.4042C17.8562 24.4726 17.8006 24.5295 17.7338 24.5751C17.667 24.6207 17.5891 24.6435 17.5001 24.6435C17.4111 24.6435 17.3276 24.6207 17.2497 24.5751C17.1718 24.5295 17.1106 24.4726 17.0661 24.4042C16.9993 24.3131 16.9381 24.2162 16.8824 24.1137C16.8268 24.0111 16.7656 23.9029 16.6988 23.789C16.5875 23.6523 16.4595 23.5326 16.3148 23.4301C16.1702 23.3276 16.0088 23.2649 15.8307 23.2421C15.4078 23.1737 14.9905 23.3048 14.5787 23.6352C14.1669 23.9656 14.0612 24.4156 14.2615 24.9853C14.306 25.1903 14.3672 25.3783 14.4451 25.5492C14.523 25.7201 14.6065 25.8853 14.6955 26.0448V26.0107C15.0517 26.6487 15.4746 27.2297 15.9643 27.7538C16.454 28.2779 16.9548 28.802 17.4667 29.3261H17.5001Z"/>
</svg>
