<svg id="svg-epileptology" viewBox="0 0 36 36" fill="currentColor" xmlns="http://www.w3.org/2000/svg">
<path d="M10.4136 0.602539C10.2313 0.716473 10.1287 0.881672 10.106 1.09814C10.0832 1.31462 10.1401 1.62793 10.2769 2.03809C10.4819 2.60775 10.7269 3.04069 11.0117 3.33691C11.2965 3.63314 11.6782 3.861 12.1567 4.02051C12.2023 4.04329 12.2308 4.11165 12.2422 4.22559C12.2536 4.33952 12.2593 4.65853 12.2593 5.18262L12.2251 6.27637L11.9175 6.78906C11.7352 7.10807 11.4674 7.44417 11.1143 7.79736C10.7611 8.15055 10.425 8.42969 10.106 8.63477C9.71859 8.86263 9.34261 9.02783 8.97803 9.13037C8.61344 9.23291 8.1805 9.29557 7.6792 9.31836H6.82471L6.61963 9.0791C6.5057 8.89681 6.28923 8.64616 5.97021 8.32715C5.6512 8.00814 5.41195 7.79167 5.25244 7.67773L4.979 7.47266L4.91064 6.75488C4.88786 6.11686 4.76253 5.45605 4.53467 4.77246C4.3068 4.08887 4.09033 3.6901 3.88525 3.57617C3.83968 3.5306 3.77702 3.49642 3.69727 3.47363C3.61751 3.45085 3.55485 3.43945 3.50928 3.43945C3.37256 3.43945 3.23584 3.49072 3.09912 3.59326C2.9624 3.6958 2.87126 3.81543 2.82568 3.95215C2.78011 4.06608 2.76872 4.16862 2.7915 4.25977C2.81429 4.35091 2.92822 4.64713 3.1333 5.14844C3.24723 5.44466 3.33838 5.76937 3.40674 6.12256C3.4751 6.47575 3.4751 6.65234 3.40674 6.65234C3.38395 6.65234 3.32699 6.64095 3.23584 6.61816C3.14469 6.59538 3.05355 6.57259 2.9624 6.5498C2.84847 6.52702 2.69466 6.49854 2.50098 6.46436C2.30729 6.43018 2.1193 6.40169 1.93701 6.37891C1.57243 6.33333 1.29899 6.33333 1.1167 6.37891C0.934408 6.42448 0.797689 6.52702 0.706543 6.68652C0.615397 6.82324 0.569824 6.94857 0.569824 7.0625C0.569824 7.17643 0.615397 7.30176 0.706543 7.43848C0.774902 7.5752 0.888835 7.67204 1.04834 7.729C1.20785 7.78597 1.46989 7.82585 1.83447 7.84863C2.15348 7.87142 2.49528 7.93978 2.85986 8.05371C3.22445 8.16764 3.55485 8.31576 3.85107 8.49805C4.19287 8.70312 4.36947 8.83415 4.38086 8.89111C4.39225 8.94808 4.26123 9.01074 3.98779 9.0791C3.85107 9.10189 3.65169 9.13037 3.38965 9.16455C3.1276 9.19873 2.89404 9.21582 2.68896 9.21582C2.14209 9.23861 1.77751 9.30697 1.59521 9.4209C1.41292 9.53483 1.32178 9.73991 1.32178 10.0361C1.32178 10.1273 1.33887 10.207 1.37305 10.2754C1.40723 10.3438 1.4585 10.4121 1.52686 10.4805C1.618 10.5944 1.70915 10.6571 1.80029 10.6685C1.89144 10.6798 2.14209 10.6855 2.55225 10.6855C2.98519 10.6855 3.39534 10.6571 3.78271 10.6001C4.17008 10.5431 4.55745 10.4463 4.94482 10.3096C5.08154 10.264 5.20687 10.2241 5.3208 10.1899C5.43473 10.1558 5.50309 10.1387 5.52588 10.1387C5.59424 10.1387 5.73665 10.2982 5.95312 10.6172C6.1696 10.9362 6.34619 11.2324 6.48291 11.5059C6.71077 12.0072 6.85319 12.5426 6.91016 13.1123C6.96712 13.682 6.93864 14.2288 6.82471 14.7529C6.75635 15.0492 6.63102 15.3853 6.44873 15.7612C6.26644 16.1372 6.07275 16.4619 5.86768 16.7354L5.56006 17.1797L5.01318 16.9746C4.62581 16.8379 4.22705 16.7354 3.81689 16.667C3.40674 16.5986 2.9738 16.5645 2.51807 16.5645C2.1307 16.5645 1.89144 16.5702 1.80029 16.5815C1.70915 16.5929 1.618 16.6556 1.52686 16.7695C1.4585 16.8379 1.40723 16.9062 1.37305 16.9746C1.33887 17.043 1.32178 17.1227 1.32178 17.2139C1.32178 17.5101 1.41292 17.7152 1.59521 17.8291C1.77751 17.943 2.14209 18.0114 2.68896 18.0342C2.89404 18.0342 3.1276 18.0513 3.38965 18.0854C3.65169 18.1196 3.85107 18.1481 3.98779 18.1709C4.26123 18.2393 4.39225 18.3019 4.38086 18.3589C4.36947 18.4159 4.19287 18.5469 3.85107 18.752C3.55485 18.9342 3.22445 19.0824 2.85986 19.1963C2.49528 19.3102 2.15348 19.3786 1.83447 19.4014C1.46989 19.4242 1.20785 19.464 1.04834 19.521C0.888835 19.578 0.774902 19.6748 0.706543 19.8115C0.615397 19.9482 0.569824 20.0736 0.569824 20.1875C0.569824 20.3014 0.615397 20.4268 0.706543 20.5635C0.797689 20.723 0.934408 20.8255 1.1167 20.8711C1.29899 20.9167 1.57243 20.9167 1.93701 20.8711C2.1193 20.8483 2.30729 20.8198 2.50098 20.7856C2.69466 20.7515 2.84847 20.723 2.9624 20.7002C3.05355 20.6774 3.14469 20.6546 3.23584 20.6318C3.32699 20.609 3.38395 20.5977 3.40674 20.5977C3.4751 20.5977 3.45801 20.8312 3.35547 21.2983C3.25293 21.7655 3.1333 22.1585 2.99658 22.4775C2.88265 22.7054 2.82568 22.8991 2.82568 23.0586C2.82568 23.2181 2.87126 23.3662 2.9624 23.5029C3.14469 23.7308 3.36686 23.8219 3.62891 23.7764C3.89095 23.7308 4.09033 23.5599 4.22705 23.2637C4.45492 22.8307 4.63151 22.3465 4.75684 21.811C4.88216 21.2756 4.94482 20.7799 4.94482 20.3242V19.8115L5.45752 19.4014C5.59424 19.3102 5.75374 19.1735 5.93604 18.9912C6.11833 18.8089 6.26644 18.6494 6.38037 18.5127C6.58545 18.262 6.72786 18.1139 6.80762 18.0684C6.88737 18.0228 7.007 17.9886 7.1665 17.9658C7.55387 17.9202 8.03239 17.9601 8.60205 18.0854C9.17171 18.2108 9.63883 18.376 10.0034 18.5811C10.4364 18.8545 10.8237 19.1621 11.1655 19.5039C11.5073 19.8457 11.7922 20.2331 12.02 20.666L12.2593 21.1445V24.2207C12.2593 25.9297 12.2821 27.0462 12.3276 27.5703C12.3732 28.0944 12.4871 28.6641 12.6694 29.2793C13.0796 30.5326 13.7176 31.6548 14.5835 32.646C15.4494 33.6372 16.4748 34.4176 17.6597 34.9873C18.2521 35.2607 18.6908 35.4146 18.9756 35.4487C19.2604 35.4829 20.1776 35.5 21.7271 35.5H24.4956L24.9741 35.3291C25.6121 35.1012 26.216 34.7993 26.7856 34.4233C27.3553 34.0474 27.9022 33.5973 28.4263 33.0732C29.2238 32.2757 29.8504 31.3984 30.3062 30.4414C30.7619 29.4844 31.0467 28.4362 31.1606 27.2969L31.1948 26.8184L31.9126 26.7842C32.505 26.7386 33.0063 26.6247 33.4165 26.4424C33.8267 26.2601 34.214 25.9753 34.5786 25.5879C35.0571 25.0638 35.3647 24.4827 35.5015 23.8447C35.6382 23.2067 35.547 22.7624 35.228 22.5117C35.1369 22.4206 35.0173 22.375 34.8691 22.375C34.721 22.375 34.59 22.4092 34.4761 22.4775C34.3621 22.5459 34.2767 22.6427 34.2197 22.7681C34.1628 22.8934 34.1229 23.0814 34.1001 23.332C34.0773 23.5827 34.0146 23.8105 33.9121 24.0156C33.8096 24.2207 33.6785 24.4144 33.519 24.5967C33.2912 24.8245 33.0177 25.0125 32.6987 25.1606C32.3797 25.3088 32.2544 25.2917 32.3228 25.1094C32.4823 24.7448 32.5848 24.3289 32.6304 23.8618C32.6759 23.3947 32.6532 23.0472 32.562 22.8193C32.4709 22.5915 32.2943 22.4548 32.0322 22.4092C31.7702 22.3636 31.5594 22.432 31.3999 22.6143C31.3315 22.6826 31.286 22.7681 31.2632 22.8706C31.2404 22.9731 31.2176 23.1839 31.1948 23.5029C31.172 23.8675 31.1265 24.1466 31.0581 24.3403C30.9897 24.534 30.8644 24.7448 30.6821 24.9727L30.4771 25.1777L30.272 24.9727C30.2036 24.9043 30.1353 24.8188 30.0669 24.7163C29.9985 24.6138 29.9416 24.5055 29.896 24.3916C29.7821 24.1182 29.7422 23.839 29.7764 23.5542C29.8105 23.2694 29.9302 22.9219 30.1353 22.5117C30.272 22.2383 30.3574 22.0446 30.3916 21.9307C30.4258 21.8167 30.4315 21.7028 30.4087 21.5889C30.3859 21.4521 30.3403 21.3325 30.272 21.23C30.2036 21.1274 30.0897 21.0534 29.9302 21.0078C29.839 20.985 29.7593 20.9736 29.6909 20.9736C29.6226 20.9736 29.5314 20.9964 29.4175 21.042C29.3263 21.1104 29.2409 21.1958 29.1611 21.2983C29.0814 21.4009 28.9618 21.6003 28.8022 21.8965C28.506 22.5117 28.3351 23.0529 28.2896 23.52C28.244 23.9871 28.3237 24.46 28.5288 24.9385C28.5972 25.1208 28.6086 25.2176 28.563 25.229C28.5174 25.2404 28.3579 25.1777 28.0845 25.041C27.7199 24.8815 27.4351 24.6479 27.23 24.3403C27.0249 24.0327 26.8882 23.6624 26.8198 23.2295C26.797 22.9561 26.7401 22.7567 26.6489 22.6313C26.5578 22.506 26.4211 22.432 26.2388 22.4092C25.897 22.3408 25.652 22.4434 25.5039 22.7168C25.3558 22.9902 25.3273 23.3662 25.4185 23.8447C25.5324 24.4372 25.8115 24.9784 26.2559 25.4683C26.7002 25.9582 27.2186 26.3171 27.811 26.5449C27.9705 26.5905 28.1357 26.6304 28.3066 26.6646C28.4775 26.6987 28.6997 26.7158 28.9731 26.7158L29.7251 26.7842V27.0918C29.5884 28.5046 29.1156 29.7977 28.3066 30.9712C27.4977 32.1447 26.4438 33.0277 25.145 33.6201C23.9373 34.1898 22.7183 34.4518 21.4878 34.4062C20.2345 34.3607 19.0781 34.0588 18.0186 33.5005C16.959 32.9422 16.0418 32.1618 15.2671 31.1592C14.5151 30.1794 14.0252 29.0286 13.7974 27.707C13.7518 27.4564 13.7233 27.0918 13.7119 26.6133C13.7005 26.1348 13.6948 25.2917 13.6948 24.084C13.6948 22.4661 13.7119 21.5205 13.7461 21.2471C13.7803 20.9736 13.8999 20.666 14.105 20.3242C14.2873 20.0508 14.4696 19.8115 14.6519 19.6064C14.8341 19.4014 15.0506 19.1963 15.3013 18.9912C15.757 18.6266 16.2469 18.3589 16.771 18.188C17.2951 18.0171 17.8534 17.9316 18.4458 17.9316H19.1636L19.437 18.2051C19.6421 18.4102 19.8472 18.5924 20.0522 18.752C20.2573 18.9115 20.4738 19.0482 20.7017 19.1621L21.1118 19.3672L21.4536 20.7002C21.5903 21.2926 21.6872 21.6743 21.7441 21.8452C21.8011 22.0161 21.8752 22.1357 21.9663 22.2041C22.1714 22.3864 22.4106 22.432 22.6841 22.3408C22.9575 22.2497 23.117 22.0674 23.1626 21.7939C23.1854 21.7028 23.1512 21.4351 23.0601 20.9907C22.9689 20.5464 22.8664 20.1305 22.7524 19.7432C22.7297 19.6976 22.7354 19.6691 22.7695 19.6577C22.8037 19.6463 22.8778 19.6406 22.9917 19.6406C23.1968 19.6406 23.4588 19.6007 23.7778 19.521C24.0968 19.4412 24.3019 19.3672 24.3931 19.2988C24.5981 19.1393 24.6893 18.9285 24.6665 18.6665C24.6437 18.4045 24.5184 18.2165 24.2905 18.1025C24.1766 18.0342 24.0798 18 24 18C23.9202 18 23.7323 18.0342 23.436 18.1025C23.1626 18.1481 22.9632 18.1766 22.8379 18.188C22.7126 18.1994 22.5474 18.1823 22.3423 18.1367C22.0233 18.0911 21.7214 17.9943 21.4365 17.8462C21.1517 17.6981 20.884 17.5101 20.6333 17.2822C19.7446 16.4847 19.2262 15.4764 19.0781 14.2573C18.93 13.0382 19.175 11.9274 19.813 10.9248C19.9269 10.7653 20.0295 10.6457 20.1206 10.5659C20.2118 10.4862 20.394 10.3779 20.6675 10.2412C20.827 10.1501 20.9751 10.076 21.1118 10.019C21.2485 9.96208 21.3397 9.93359 21.3853 9.93359C21.408 9.93359 21.4593 9.97347 21.5391 10.0532C21.6188 10.133 21.7157 10.2298 21.8296 10.3438C21.9207 10.4577 22.0404 10.5887 22.1885 10.7368C22.3366 10.8849 22.479 11.0046 22.6157 11.0957C22.798 11.2552 22.9233 11.3521 22.9917 11.3862C23.0601 11.4204 23.1626 11.4261 23.2993 11.4033C23.5272 11.3805 23.7038 11.2723 23.8291 11.0786C23.9544 10.8849 23.9829 10.6855 23.9146 10.4805C23.8918 10.4349 23.8234 10.3381 23.7095 10.1899C23.5955 10.0418 23.4588 9.88802 23.2993 9.72852L22.7524 9.18164L22.9233 9.0791C23.174 8.89681 23.4417 8.59489 23.7266 8.17334C24.0114 7.75179 24.1538 7.43848 24.1538 7.2334C24.1538 7.18783 24.2393 7.0682 24.4102 6.87451C24.5811 6.68083 24.8032 6.44727 25.0767 6.17383C25.3273 5.92318 25.5495 5.68962 25.7432 5.47314C25.9368 5.25667 26.0451 5.12565 26.0679 5.08008C26.1362 4.875 26.1077 4.68131 25.9824 4.49902C25.8571 4.31673 25.6919 4.2028 25.4868 4.15723C25.3273 4.13444 25.1849 4.15723 25.0596 4.22559C24.9342 4.29395 24.7349 4.46484 24.4614 4.73828L23.9829 5.2168L23.7437 4.875C23.5158 4.5332 23.1911 4.2085 22.7695 3.90088C22.348 3.59326 22.0119 3.43945 21.7612 3.43945C21.6245 3.43945 21.4878 3.49072 21.3511 3.59326C21.2144 3.6958 21.1232 3.81543 21.0776 3.95215C21.0093 4.13444 21.0264 4.30534 21.1289 4.46484C21.2314 4.62435 21.408 4.77246 21.6587 4.90918C22.16 5.18262 22.4961 5.53581 22.667 5.96875C22.8379 6.40169 22.8094 6.83463 22.5815 7.26758C22.4676 7.47266 22.2853 7.66634 22.0347 7.84863C21.784 8.03092 21.3055 8.29297 20.5991 8.63477L19.1978 9.31836L18.3091 9.28418C17.8078 9.28418 17.3805 9.23861 17.0273 9.14746C16.6742 9.05631 16.2925 8.89681 15.8823 8.66895C15.381 8.37272 14.8911 7.92838 14.4126 7.33594C13.9341 6.74349 13.6948 6.26497 13.6948 5.90039V5.59277L14.0708 5.49023C14.3442 5.42188 14.6348 5.30794 14.9424 5.14844C15.25 4.98893 15.4836 4.82943 15.6431 4.66992C15.7342 4.55599 15.7969 4.46484 15.8311 4.39648C15.8652 4.32812 15.8823 4.23698 15.8823 4.12305C15.8823 3.96354 15.8368 3.82113 15.7456 3.6958C15.6545 3.57047 15.5291 3.48503 15.3696 3.43945C15.2329 3.39388 15.1019 3.39388 14.9766 3.43945C14.8512 3.48503 14.6974 3.57617 14.5151 3.71289C14.4012 3.82682 14.2645 3.92367 14.105 4.00342C13.9455 4.08317 13.8315 4.12305 13.7632 4.12305C13.7404 4.12305 13.7233 3.98063 13.7119 3.6958C13.7005 3.41097 13.6948 3.0179 13.6948 2.5166C13.672 1.71907 13.6549 1.24626 13.6436 1.09814C13.6322 0.950031 13.5809 0.830402 13.4897 0.739258C13.3758 0.625324 13.2391 0.556965 13.0796 0.53418C12.9201 0.511395 12.772 0.53418 12.6353 0.602539C12.4757 0.693684 12.3732 0.807617 12.3276 0.944336C12.2821 1.08105 12.2593 1.3431 12.2593 1.73047C12.2593 2.00391 12.2536 2.1862 12.2422 2.27734C12.2308 2.36849 12.2137 2.41406 12.1909 2.41406C12.0998 2.36849 12.0029 2.25456 11.9004 2.07227C11.7979 1.88997 11.701 1.66211 11.6099 1.38867C11.4731 1.0013 11.3022 0.739258 11.0972 0.602539C10.8921 0.46582 10.6642 0.46582 10.4136 0.602539ZM13.4214 8.49805C13.8999 9.06771 14.5379 9.56901 15.3354 10.002C16.133 10.4349 16.9077 10.6742 17.6597 10.7197C17.8647 10.7425 17.9958 10.7653 18.0527 10.7881C18.1097 10.8109 18.1268 10.8451 18.104 10.8906C17.7166 11.8021 17.5229 12.7135 17.5229 13.625C17.5229 14.5365 17.7166 15.4479 18.104 16.3594C18.1268 16.4277 18.1211 16.4676 18.0869 16.479C18.0527 16.4904 17.9787 16.4961 17.8647 16.4961C17.409 16.4961 16.8849 16.6043 16.2925 16.8208C15.7 17.0373 15.1532 17.3164 14.6519 17.6582C14.424 17.8177 14.1506 18.0513 13.8315 18.3589C13.5125 18.6665 13.2847 18.9115 13.1479 19.0938L12.9771 19.4014L12.8062 19.1621C12.6466 18.957 12.4245 18.7121 12.1396 18.4272C11.8548 18.1424 11.6099 17.9202 11.4048 17.7607C10.9946 17.4417 10.4478 17.1512 9.76416 16.8892C9.08057 16.6271 8.53369 16.4961 8.12354 16.4961C8.03239 16.4961 7.95833 16.4904 7.90137 16.479C7.8444 16.4676 7.81592 16.4505 7.81592 16.4277C7.81592 16.4049 7.82731 16.3594 7.8501 16.291C7.87288 16.2227 7.90706 16.1429 7.95264 16.0518C8.24886 15.3682 8.39697 14.5592 8.39697 13.625C8.39697 12.6908 8.24886 11.8818 7.95264 11.1982C7.90706 11.1071 7.87288 11.0273 7.8501 10.959C7.82731 10.8906 7.81592 10.8451 7.81592 10.8223C7.81592 10.7995 7.8444 10.7824 7.90137 10.771C7.95833 10.7596 8.03239 10.7539 8.12354 10.7539C8.48812 10.7539 8.96663 10.6514 9.55908 10.4463C10.1515 10.2412 10.6756 9.99056 11.1313 9.69434C11.3592 9.55762 11.6383 9.32975 11.9688 9.01074C12.2992 8.69173 12.5441 8.41829 12.7036 8.19043C12.8175 8.05371 12.8916 7.97396 12.9258 7.95117C12.96 7.92838 12.9998 7.93978 13.0454 7.98535C13.0682 8.03092 13.1195 8.09928 13.1992 8.19043C13.279 8.28158 13.353 8.38412 13.4214 8.49805ZM12.3618 10.7881C12.0428 10.8564 11.7637 10.959 11.5244 11.0957C11.2852 11.2324 11.0516 11.4261 10.8237 11.6768C10.5503 11.9958 10.3623 12.2863 10.2598 12.5483C10.1572 12.8104 10.106 13.1693 10.106 13.625C10.106 14.1035 10.1572 14.4738 10.2598 14.7358C10.3623 14.9979 10.5503 15.277 10.8237 15.5732C11.4162 16.1885 12.1112 16.5075 12.9087 16.5303C13.7062 16.5531 14.4126 16.2682 15.0278 15.6758C15.8481 14.8327 16.0817 13.8586 15.7285 12.7534C15.3753 11.6483 14.6177 10.9818 13.4556 10.7539C13.2049 10.7083 13.0226 10.6855 12.9087 10.6855C12.7948 10.6855 12.6125 10.7197 12.3618 10.7881ZM13.7632 12.4287C14.1961 12.7249 14.4126 13.1237 14.4126 13.625C14.4126 14.1263 14.1961 14.5251 13.7632 14.8213C13.5809 14.958 13.353 15.0378 13.0796 15.0605C12.8062 15.0833 12.5669 15.0378 12.3618 14.9238C11.7922 14.6504 11.5073 14.2118 11.5073 13.6079C11.5073 13.0041 11.7922 12.5768 12.3618 12.3262C12.5669 12.2122 12.8062 12.1667 13.0796 12.1895C13.353 12.2122 13.5809 12.292 13.7632 12.4287Z"/>
</svg>
