<svg id="svg-people" viewBox="0 0 20 21" fill="currentColor" xmlns="http://www.w3.org/2000/svg">
<path d="M8.55447 19.5C8.42557 19.4531 8.30252 19.3945 8.18533 19.3242C8.06815 19.2539 7.96854 19.1543 7.88651 19.0254C7.82791 18.9434 7.78397 18.8467 7.75467 18.7354C7.72537 18.624 7.71072 18.5098 7.71072 18.3926C7.71072 18.3809 7.71072 18.3691 7.71072 18.3574C7.71072 18.3457 7.71072 18.334 7.71072 18.3223C7.71072 17.3965 7.71072 16.4648 7.71072 15.5273C7.71072 14.5898 7.71072 13.6523 7.71072 12.7148C7.71072 12.7148 7.71072 12.7119 7.71072 12.7061C7.71072 12.7002 7.71072 12.6973 7.71072 12.6973C7.71072 12.6387 7.69901 12.5889 7.67557 12.5479C7.65213 12.5068 7.61697 12.4746 7.5701 12.4512C7.33572 12.2754 7.16287 12.0703 7.05154 11.8359C6.94022 11.6016 6.88455 11.3438 6.88455 11.0625C6.88455 10.4766 6.88455 9.89062 6.88455 9.30469C6.88455 8.71875 6.88455 8.13867 6.88455 7.56445C6.88455 7.1543 6.98709 6.80859 7.19217 6.52734C7.39725 6.24609 7.67557 6.04687 8.02713 5.92969C8.06229 5.91797 8.09744 5.90918 8.1326 5.90332C8.16776 5.89746 8.20877 5.89453 8.25565 5.89453C8.8533 5.89453 9.45389 5.8916 10.0574 5.88574C10.6609 5.87988 11.2674 5.88281 11.8767 5.89453C12.0877 5.90625 12.2752 5.97656 12.4392 6.10547C12.6033 6.23438 12.7498 6.38086 12.8787 6.54492C12.9724 6.67383 13.0457 6.81738 13.0984 6.97559C13.1512 7.13379 13.1775 7.29492 13.1775 7.45898C13.1775 7.4707 13.1775 7.47656 13.1775 7.47656C13.1775 8.09766 13.1775 8.72168 13.1775 9.34863C13.1775 9.97559 13.1717 10.5996 13.1599 11.2207C13.1599 11.4668 13.1013 11.6924 12.9842 11.8975C12.867 12.1025 12.7146 12.2754 12.5271 12.416C12.4803 12.4395 12.4451 12.4746 12.4217 12.5215C12.3982 12.5684 12.3865 12.6211 12.3865 12.6797C12.3865 12.6797 12.3865 12.6826 12.3865 12.6885C12.3865 12.6943 12.3865 12.7031 12.3865 12.7148C12.3865 14.5313 12.3865 16.3477 12.3865 18.1641C12.3865 18.5625 12.3279 18.8467 12.2107 19.0166C12.0935 19.1865 11.8592 19.3418 11.5076 19.4824H11.156C10.8045 19.3535 10.5701 19.2012 10.4529 19.0254C10.3357 18.8496 10.2771 18.5684 10.2771 18.1816V14.9297H9.78494V15.1582C9.78494 15.6973 9.78494 16.2334 9.78494 16.7666C9.78494 17.2998 9.78494 17.8359 9.78494 18.375C9.78494 18.5742 9.75272 18.75 9.68826 18.9023C9.62381 19.0547 9.50955 19.1895 9.34549 19.3066C9.2869 19.3418 9.22537 19.374 9.16092 19.4033C9.09647 19.4326 9.02908 19.4648 8.95877 19.5H8.94119H8.55447ZM10.7342 14.4551V18.3047C10.7342 18.3398 10.7342 18.3721 10.7342 18.4014C10.7342 18.4307 10.7342 18.4629 10.7342 18.498C10.7459 18.6387 10.8015 18.7617 10.9012 18.8672C11.0008 18.9727 11.1209 19.0312 11.2615 19.043C11.2732 19.043 11.2849 19.043 11.2967 19.043C11.3084 19.043 11.3201 19.043 11.3318 19.043C11.4724 19.043 11.5955 19.002 11.701 18.9199C11.8064 18.8379 11.8709 18.7324 11.8943 18.6035C11.906 18.5684 11.9148 18.5273 11.9207 18.4805C11.9265 18.4336 11.9295 18.3867 11.9295 18.3398C11.9295 18.3398 11.9295 18.3369 11.9295 18.3311C11.9295 18.3252 11.9295 18.3164 11.9295 18.3047C11.9295 16.3594 11.9295 14.4023 11.9295 12.4336C11.9295 12.4336 11.9295 12.4307 11.9295 12.4248C11.9295 12.4189 11.9295 12.416 11.9295 12.416C11.9295 12.3574 11.9412 12.3076 11.9646 12.2666C11.9881 12.2256 12.0232 12.1934 12.0701 12.1699C12.2693 12.041 12.4305 11.8682 12.5535 11.6514C12.6765 11.4346 12.7381 11.1973 12.7381 10.9395C12.7381 10.9277 12.7381 10.916 12.7381 10.9043C12.7381 10.8926 12.7381 10.8809 12.7381 10.8691C12.7263 10.3418 12.7234 9.80859 12.7293 9.26953C12.7351 8.73047 12.7322 8.19141 12.7205 7.65234C12.7205 7.59375 12.7205 7.53516 12.7205 7.47656C12.7205 7.41797 12.7146 7.35937 12.7029 7.30078V7.31836C12.6795 7.04883 12.5506 6.81152 12.3162 6.60645C12.0818 6.40137 11.8299 6.30469 11.5603 6.31641C11.0447 6.32813 10.5232 6.33105 9.99588 6.3252C9.46854 6.31934 8.94705 6.31641 8.43143 6.31641C8.41971 6.31641 8.41385 6.31641 8.41385 6.31641C8.41385 6.31641 8.40799 6.31641 8.39627 6.31641C8.36111 6.31641 8.32596 6.31934 8.2908 6.3252C8.25565 6.33105 8.22049 6.33984 8.18533 6.35156C7.9158 6.43359 7.70486 6.58301 7.55252 6.7998C7.40018 7.0166 7.32401 7.27734 7.32401 7.58203C7.32401 8.15625 7.32401 8.7334 7.32401 9.31348C7.32401 9.89355 7.32401 10.4707 7.32401 11.0449C7.32401 11.0449 7.32401 11.0479 7.32401 11.0537C7.32401 11.0596 7.32401 11.0684 7.32401 11.0801C7.32401 11.3145 7.38553 11.5283 7.50858 11.7217C7.63162 11.915 7.79276 12.0645 7.99197 12.1699V12.1875C8.03885 12.1992 8.07693 12.2285 8.10623 12.2754C8.13553 12.3223 8.15018 12.375 8.15018 12.4336C8.15018 12.4336 8.15018 12.4365 8.15018 12.4424C8.15018 12.4482 8.15018 12.4512 8.15018 12.4512C8.15018 14.3965 8.15018 16.3359 8.15018 18.2695C8.15018 18.2813 8.15018 18.29 8.15018 18.2959C8.15018 18.3018 8.15018 18.3047 8.15018 18.3047C8.15018 18.3516 8.15018 18.3955 8.15018 18.4365C8.15018 18.4775 8.15604 18.5215 8.16776 18.5684V18.5508C8.19119 18.6914 8.25272 18.8086 8.35233 18.9023C8.45193 18.9961 8.57791 19.043 8.73026 19.043C8.90604 19.0547 9.05252 18.999 9.16971 18.876C9.2869 18.7529 9.34549 18.5859 9.34549 18.375C9.34549 17.7656 9.34549 17.1533 9.34549 16.5381C9.34549 15.9229 9.34549 15.3047 9.34549 14.6836V14.4727H10.7342V14.4551ZM6.53299 8.35547V8.58398C6.53299 9.05273 6.53299 9.51855 6.53299 9.98145C6.53299 10.4443 6.53299 10.9102 6.53299 11.3789C6.53299 11.6602 6.59158 11.9004 6.70877 12.0996C6.82596 12.2988 7.00174 12.4688 7.23611 12.6094C7.25955 12.6328 7.28006 12.6592 7.29764 12.6885C7.31522 12.7178 7.32401 12.75 7.32401 12.7852C7.33572 14.7422 7.33572 16.7051 7.32401 18.6738C7.32401 18.8965 7.25369 19.0635 7.11307 19.1748C6.97244 19.2861 6.79666 19.3184 6.58572 19.2715C6.36307 19.2129 6.19022 19.1045 6.06717 18.9463C5.94412 18.7881 5.8826 18.5977 5.8826 18.375C5.8826 17.9531 5.8826 17.5312 5.8826 17.1094C5.8826 16.6875 5.8826 16.2656 5.8826 15.8438V15.6328H5.58377V15.8438C5.58377 16.2773 5.58377 16.708 5.58377 17.1357C5.58377 17.5635 5.57791 17.9883 5.56619 18.4102C5.56619 18.4102 5.56619 18.416 5.56619 18.4277C5.56619 18.6621 5.48416 18.8643 5.3201 19.0342C5.15604 19.2041 4.95096 19.2891 4.70486 19.2891C4.65799 19.2891 4.60818 19.2832 4.55545 19.2715C4.50272 19.2598 4.45291 19.248 4.40604 19.2363C4.21854 19.1777 4.07205 19.0664 3.96658 18.9023C3.86111 18.7383 3.80838 18.5449 3.80838 18.3223C3.80838 16.998 3.80838 15.6738 3.80838 14.3496C3.80838 14.3262 3.80838 14.2998 3.80838 14.2705C3.80838 14.2412 3.80838 14.2148 3.80838 14.1914C3.8201 14.0391 3.81424 13.9014 3.7908 13.7783C3.76736 13.6553 3.68533 13.541 3.54471 13.4355C3.40408 13.3301 3.31033 13.2012 3.26346 13.0488C3.21658 12.8965 3.18729 12.7383 3.17557 12.5742C3.17557 12.082 3.17557 11.5928 3.17557 11.1064C3.17557 10.6201 3.17557 10.1367 3.17557 9.65625C3.18729 9.36328 3.27518 9.10254 3.43924 8.87402C3.6033 8.64551 3.8201 8.48438 4.08963 8.39062C4.11307 8.37891 4.13651 8.37012 4.15994 8.36426C4.18338 8.3584 4.20682 8.35547 4.23026 8.35547C4.60526 8.35547 4.98318 8.35547 5.36404 8.35547C5.7449 8.35547 6.13455 8.35547 6.53299 8.35547ZM6.09354 8.79492H5.8826C5.65994 8.79492 5.43729 8.79785 5.21463 8.80371C4.99197 8.80957 4.77518 8.80078 4.56424 8.77734C4.30643 8.75391 4.0867 8.83887 3.90506 9.03223C3.72342 9.22559 3.6326 9.44531 3.6326 9.69141C3.6326 10.1602 3.6326 10.6318 3.6326 11.1064C3.6326 11.5811 3.6326 12.0586 3.6326 12.5391C3.6326 12.5391 3.6326 12.542 3.6326 12.5479C3.6326 12.5537 3.6326 12.5566 3.6326 12.5566C3.6326 12.7207 3.67654 12.873 3.76443 13.0137C3.85233 13.1543 3.96658 13.2598 4.10721 13.3301C4.15408 13.3535 4.19217 13.3857 4.22147 13.4268C4.25076 13.4678 4.26541 13.5176 4.26541 13.5762C4.26541 13.5879 4.26541 13.5967 4.26541 13.6025C4.26541 13.6084 4.26541 13.6113 4.26541 13.6113C4.26541 15.1582 4.26541 16.7051 4.26541 18.252C4.26541 18.2637 4.26541 18.2783 4.26541 18.2959C4.26541 18.3135 4.26541 18.3281 4.26541 18.3398C4.26541 18.3633 4.26541 18.3838 4.26541 18.4014C4.26541 18.4189 4.26541 18.4336 4.26541 18.4453C4.27713 18.5508 4.32401 18.6416 4.40604 18.7178C4.48807 18.7939 4.58182 18.832 4.68729 18.832C4.73416 18.832 4.77811 18.8262 4.81912 18.8145C4.86014 18.8027 4.89822 18.7793 4.93338 18.7441C5.01541 18.6973 5.06815 18.6357 5.09158 18.5596C5.11502 18.4834 5.12674 18.3984 5.12674 18.3047C5.12674 17.332 5.12674 16.3594 5.12674 15.3867V15.1758H6.33963V15.3867C6.33963 15.8789 6.33963 16.3682 6.33963 16.8545C6.33963 17.3408 6.33963 17.8301 6.33963 18.3223C6.33963 18.3926 6.34842 18.457 6.366 18.5156C6.38358 18.5742 6.40994 18.627 6.4451 18.6738C6.48026 18.709 6.53006 18.7383 6.59451 18.7617C6.65897 18.7852 6.72049 18.8086 6.77908 18.832C6.80252 18.7734 6.82303 18.7207 6.84061 18.6738C6.85818 18.627 6.87283 18.5801 6.88455 18.5332C6.88455 18.5332 6.88455 18.5303 6.88455 18.5244C6.88455 18.5186 6.88455 18.5098 6.88455 18.498C6.88455 18.498 6.88455 18.4951 6.88455 18.4893C6.88455 18.4834 6.88455 18.4805 6.88455 18.4805C6.88455 16.6758 6.88455 14.877 6.88455 13.084C6.88455 13.084 6.88455 13.0811 6.88455 13.0752C6.88455 13.0693 6.88455 13.0664 6.88455 13.0664C6.88455 13.0195 6.87283 12.9756 6.8494 12.9346C6.82596 12.8936 6.79666 12.8613 6.76151 12.8379C6.56229 12.6973 6.40408 12.5186 6.2869 12.3018C6.16971 12.085 6.10526 11.8477 6.09354 11.5898C6.09354 11.3555 6.09354 11.1182 6.09354 10.8779C6.09354 10.6377 6.09354 10.3945 6.09354 10.1484C6.09354 9.92578 6.09354 9.70313 6.09354 9.48047C6.09354 9.25781 6.09354 9.0293 6.09354 8.79492ZM14.5662 15.6328H14.2498V15.8262C14.2498 16.248 14.2498 16.6729 14.2498 17.1006C14.2498 17.5283 14.2498 17.9531 14.2498 18.375C14.2498 18.375 14.2498 18.3779 14.2498 18.3838C14.2498 18.3896 14.2498 18.3984 14.2498 18.4102C14.2498 18.6328 14.1765 18.8262 14.0301 18.9902C13.8836 19.1543 13.7049 19.248 13.4939 19.2715C13.4705 19.2832 13.45 19.2891 13.4324 19.2891C13.4148 19.2891 13.3943 19.2891 13.3709 19.2891C13.2185 19.2891 13.0867 19.2334 12.9754 19.1221C12.864 19.0107 12.8084 18.8789 12.8084 18.7266C12.8084 18.6211 12.8084 18.5215 12.8084 18.4277C12.8084 18.334 12.8084 18.2402 12.8084 18.1465C12.8084 16.3652 12.8084 14.5957 12.8084 12.8379C12.8084 12.8262 12.8084 12.8174 12.8084 12.8115C12.8084 12.8057 12.8084 12.8027 12.8084 12.8027C12.8084 12.7559 12.8201 12.7119 12.8435 12.6709C12.867 12.6299 12.9021 12.6035 12.949 12.5918C13.1482 12.4746 13.3094 12.3193 13.4324 12.126C13.5555 11.9326 13.617 11.7129 13.617 11.4668C13.617 11.4551 13.617 11.4434 13.617 11.4316C13.617 11.4199 13.6111 11.4141 13.5994 11.4141C13.5994 10.9336 13.5994 10.459 13.5994 9.99023C13.5994 9.52148 13.5994 9.05273 13.5994 8.58398V8.35547H13.8806C14.1853 8.35547 14.4842 8.35547 14.7771 8.35547C15.0701 8.35547 15.3689 8.35547 15.6736 8.35547C15.6736 8.35547 15.6765 8.35547 15.6824 8.35547C15.6883 8.35547 15.6912 8.35547 15.6912 8.35547C15.9724 8.35547 16.2244 8.44043 16.4471 8.61035C16.6697 8.78027 16.8162 9 16.8865 9.26953C16.9099 9.33984 16.9275 9.41602 16.9392 9.49805C16.951 9.58008 16.9568 9.66211 16.9568 9.74414C16.9568 10.2012 16.9568 10.6553 16.9568 11.1064C16.9568 11.5576 16.9568 12.0117 16.9568 12.4688C16.9568 12.4688 16.9568 12.4746 16.9568 12.4863C16.9568 12.498 16.9568 12.5039 16.9568 12.5039C16.9568 12.7383 16.9099 12.9521 16.8162 13.1455C16.7224 13.3389 16.5877 13.5 16.4119 13.6289C16.3885 13.6523 16.368 13.6846 16.3504 13.7256C16.3328 13.7666 16.324 13.8047 16.324 13.8398C16.324 13.8516 16.324 13.8574 16.324 13.8574C16.324 14.5957 16.324 15.3369 16.324 16.0811C16.324 16.8252 16.324 17.5723 16.324 18.3223C16.324 18.5684 16.2625 18.7734 16.1394 18.9375C16.0164 19.1016 15.8494 19.207 15.6385 19.2539C15.6033 19.2656 15.5681 19.2744 15.533 19.2803C15.4978 19.2861 15.4627 19.2891 15.4275 19.2891C15.1931 19.2891 14.9939 19.207 14.8299 19.043C14.6658 18.8789 14.5779 18.6855 14.5662 18.4629C14.5545 18.0293 14.5515 17.5957 14.5574 17.1621C14.5633 16.7285 14.5662 16.3008 14.5662 15.8789V15.6328ZM15.0056 15.1758V18.2344C15.0056 18.2344 15.0056 18.2373 15.0056 18.2432C15.0056 18.249 15.0056 18.252 15.0056 18.252C15.0056 18.2871 15.0056 18.3223 15.0056 18.3574C15.0056 18.3926 15.0115 18.4219 15.0232 18.4453C15.0349 18.5391 15.073 18.624 15.1375 18.7002C15.2019 18.7764 15.2869 18.8203 15.3924 18.832C15.3924 18.832 15.3982 18.832 15.4099 18.832C15.4217 18.832 15.4275 18.832 15.4275 18.832C15.533 18.832 15.6209 18.8027 15.6912 18.7441C15.7615 18.6855 15.8142 18.6152 15.8494 18.5332C15.8611 18.498 15.867 18.4629 15.867 18.4277C15.867 18.3926 15.867 18.3574 15.867 18.3223C15.867 18.3223 15.867 18.3164 15.867 18.3047C15.867 18.293 15.867 18.2871 15.867 18.2871C15.867 16.7168 15.867 15.1465 15.867 13.5762C15.867 13.5762 15.867 13.5732 15.867 13.5674C15.867 13.5615 15.867 13.5527 15.867 13.541C15.867 13.5059 15.8787 13.4707 15.9021 13.4355C15.9256 13.4004 15.9549 13.3711 15.99 13.3477C16.1424 13.2773 16.2654 13.1689 16.3592 13.0225C16.4529 12.876 16.4998 12.709 16.4998 12.5215C16.4998 12.5215 16.4998 12.5156 16.4998 12.5039C16.4998 12.4922 16.4998 12.4863 16.4998 12.4863C16.4998 11.6777 16.4998 10.875 16.4998 10.0781C16.4998 10.0078 16.4998 9.9375 16.4998 9.86719C16.4998 9.79688 16.4998 9.72656 16.4998 9.65625C16.4998 9.42188 16.409 9.21387 16.2273 9.03223C16.0457 8.85059 15.8377 8.76562 15.6033 8.77734C15.3806 8.80078 15.1551 8.80957 14.9265 8.80371C14.698 8.79785 14.4724 8.79492 14.2498 8.79492C14.2146 8.79492 14.1824 8.79492 14.1531 8.79492C14.1238 8.79492 14.0916 8.79492 14.0564 8.79492V9.02344C14.0564 9.45703 14.0564 9.89063 14.0564 10.3242C14.0564 10.7578 14.0506 11.1855 14.0388 11.6074C14.0388 11.8652 13.9803 12.0996 13.8631 12.3105C13.7459 12.5215 13.5935 12.6914 13.406 12.8203C13.3592 12.8555 13.324 12.8936 13.3006 12.9346C13.2771 12.9756 13.2654 13.0254 13.2654 13.084C13.2654 13.084 13.2654 13.0869 13.2654 13.0928C13.2654 13.0986 13.2654 13.1016 13.2654 13.1016C13.2654 14.8945 13.2596 16.6816 13.2478 18.4629C13.2478 18.4746 13.2478 18.4805 13.2478 18.4805C13.2478 18.4805 13.2478 18.4863 13.2478 18.498C13.2478 18.5215 13.2508 18.5479 13.2566 18.5771C13.2625 18.6064 13.2654 18.6328 13.2654 18.6562C13.2771 18.75 13.3035 18.8086 13.3445 18.832C13.3855 18.8555 13.4471 18.8438 13.5291 18.7969C13.6111 18.7617 13.6785 18.709 13.7312 18.6387C13.784 18.5684 13.8103 18.4863 13.8103 18.3926C13.8103 18.3809 13.8103 18.3721 13.8103 18.3662C13.8103 18.3604 13.8103 18.3516 13.8103 18.3398C13.8103 17.8477 13.8103 17.3555 13.8103 16.8633C13.8103 16.3711 13.8103 15.8789 13.8103 15.3867V15.1758H15.0056ZM10.0486 5.4375C10.0486 5.4375 10.0457 5.4375 10.0398 5.4375C10.034 5.4375 10.031 5.4375 10.031 5.4375C9.49197 5.4375 9.02908 5.24414 8.64236 4.85742C8.25565 4.4707 8.06229 4.00781 8.06229 3.46875C8.06229 2.92969 8.25565 2.4668 8.64236 2.08008C9.02908 1.69336 9.49197 1.5 10.031 1.5C10.5818 1.5 11.0476 1.69336 11.4285 2.08008C11.8094 2.4668 11.9998 2.92969 11.9998 3.46875C11.9998 4.01953 11.8094 4.48535 11.4285 4.86621C11.0476 5.24707 10.5877 5.4375 10.0486 5.4375ZM10.0135 4.98047C10.0135 4.98047 10.0164 4.98047 10.0222 4.98047C10.0281 4.98047 10.031 4.98047 10.031 4.98047C10.4529 4.98047 10.8133 4.83398 11.1121 4.54102C11.4109 4.24805 11.5603 3.89062 11.5603 3.46875C11.5603 3.04688 11.4109 2.68945 11.1121 2.39648C10.8133 2.10352 10.4529 1.95703 10.031 1.95703C9.62088 1.95703 9.26639 2.10059 8.96756 2.3877C8.66873 2.6748 8.51932 3.0293 8.51932 3.45117C8.51932 3.45117 8.51932 3.4541 8.51932 3.45996C8.51932 3.46582 8.51932 3.46875 8.51932 3.46875C8.51932 3.89062 8.6658 4.24805 8.95877 4.54102C9.25174 4.83398 9.6033 4.98047 10.0135 4.98047ZM5.42557 7.86328C5.12088 7.86328 4.84256 7.77539 4.59061 7.59961C4.33865 7.42383 4.15408 7.20117 4.0369 6.93164C3.9783 6.82617 3.93729 6.71484 3.91385 6.59766C3.89041 6.48047 3.87869 6.35742 3.87869 6.22852C3.87869 6.05273 3.90506 5.88867 3.95779 5.73633C4.01053 5.58398 4.08377 5.44336 4.17752 5.31445C4.37674 5.0332 4.61404 4.83984 4.88943 4.73438C5.16483 4.62891 5.46658 4.59961 5.79471 4.64648C6.14627 4.70508 6.43338 4.83398 6.65604 5.0332C6.87869 5.23242 7.02518 5.48437 7.09549 5.78906C7.10721 5.8125 7.11307 5.83594 7.11307 5.85938C7.11307 5.88281 7.11307 5.90625 7.11307 5.92969C7.11307 6 7.10135 6.06152 7.07791 6.11426C7.05447 6.16699 7.01932 6.2168 6.97244 6.26367C6.84354 6.39258 6.74393 6.54492 6.67361 6.7207C6.6033 6.89648 6.56229 7.07812 6.55057 7.26562C6.55057 7.27734 6.55057 7.2832 6.55057 7.2832C6.55057 7.36523 6.52713 7.43848 6.48026 7.50293C6.43338 7.56738 6.37479 7.61719 6.30447 7.65234C6.18729 7.72266 6.05545 7.77539 5.90897 7.81055C5.76248 7.8457 5.61307 7.86328 5.46072 7.86328C5.44901 7.86328 5.44315 7.86328 5.44315 7.86328C5.44315 7.86328 5.43729 7.86328 5.42557 7.86328ZM5.51346 5.06836C5.45486 5.08008 5.3992 5.08887 5.34647 5.09473C5.29373 5.10059 5.24393 5.10937 5.19705 5.12109H5.21463C4.95682 5.17969 4.74588 5.31445 4.58182 5.52539C4.41776 5.73633 4.33572 5.97656 4.33572 6.24609C4.33572 6.31641 4.34158 6.38379 4.3533 6.44824C4.36502 6.5127 4.3826 6.57422 4.40604 6.63281H4.38846C4.49393 6.9375 4.70193 7.16309 5.01248 7.30957C5.32303 7.45605 5.63651 7.45898 5.95291 7.31836C5.99979 7.30664 6.0408 7.27734 6.07596 7.23047C6.11111 7.18359 6.13455 7.13086 6.14627 7.07227C6.15799 6.88477 6.19901 6.70898 6.26932 6.54492C6.33963 6.38086 6.42752 6.24023 6.53299 6.12305C6.61502 6.05273 6.65604 5.98242 6.65604 5.91211C6.65604 5.8418 6.63846 5.77148 6.6033 5.70117C6.49783 5.47852 6.34842 5.32324 6.15506 5.23535C5.9617 5.14746 5.74783 5.0918 5.51346 5.06836ZM14.6013 4.61133C14.9412 4.61133 15.2576 4.71094 15.5506 4.91016C15.8435 5.10937 16.0428 5.36133 16.1482 5.66602C16.1834 5.75977 16.2097 5.85352 16.2273 5.94727C16.2449 6.04102 16.2537 6.14062 16.2537 6.24609C16.2537 6.51562 16.1951 6.76465 16.0779 6.99316C15.9607 7.22168 15.8025 7.41211 15.6033 7.56445H15.5857C15.3279 7.76367 15.0232 7.86621 14.6717 7.87207C14.3201 7.87793 14.0037 7.78125 13.7224 7.58203C13.6873 7.55859 13.6609 7.5293 13.6433 7.49414C13.6258 7.45898 13.617 7.42383 13.617 7.38867C13.6053 7.14258 13.5496 6.91406 13.45 6.70312C13.3504 6.49219 13.2244 6.31055 13.0721 6.1582C13.0603 6.13477 13.0486 6.1084 13.0369 6.0791C13.0252 6.0498 13.0193 6.02344 13.0193 6C13.0193 6 13.0193 5.99707 13.0193 5.99121C13.0193 5.98535 13.0193 5.98242 13.0193 5.98242C13.031 5.68945 13.1394 5.42285 13.3445 5.18262C13.5496 4.94238 13.8045 4.78125 14.1092 4.69922C14.1912 4.67578 14.2732 4.6582 14.3553 4.64648C14.4373 4.63477 14.5193 4.62305 14.6013 4.61133ZM14.6365 5.06836C14.5545 5.08008 14.4812 5.0918 14.4168 5.10352C14.3523 5.11523 14.2908 5.12695 14.2322 5.13867H14.2498C14.074 5.18555 13.9187 5.26465 13.784 5.37598C13.6492 5.4873 13.5525 5.63672 13.4939 5.82422C13.4939 5.83594 13.4939 5.84766 13.4939 5.85938C13.4939 5.87109 13.4939 5.88281 13.4939 5.89453C13.4939 5.91797 13.4969 5.94141 13.5027 5.96484C13.5086 5.98828 13.5174 6.01172 13.5291 6.03516C13.6697 6.17578 13.781 6.33984 13.8631 6.52734C13.9451 6.71484 13.9978 6.91406 14.0213 7.125C14.0213 7.16016 14.0271 7.18945 14.0388 7.21289C14.0506 7.23633 14.0681 7.25391 14.0916 7.26562C14.1619 7.30078 14.2351 7.33008 14.3113 7.35352C14.3875 7.37695 14.4666 7.39453 14.5486 7.40625H14.5662C14.5779 7.40625 14.5926 7.40625 14.6101 7.40625C14.6277 7.40625 14.6424 7.40625 14.6541 7.40625C14.9705 7.40625 15.24 7.29785 15.4627 7.08105C15.6853 6.86426 15.8025 6.60352 15.8142 6.29883C15.8142 6.28711 15.8142 6.27832 15.8142 6.27246C15.8142 6.2666 15.8142 6.25781 15.8142 6.24609C15.8142 5.91797 15.6971 5.63965 15.4627 5.41113C15.2283 5.18262 14.9529 5.06836 14.6365 5.06836Z"/>
</svg>
