<svg id="svg-physiotherapy" viewBox="0 0 36 36" fill="currentColor" xmlns="http://www.w3.org/2000/svg">
<path d="M23.9556 0.602539C23.4543 0.739258 23.0099 0.984211 22.6226 1.3374C22.2352 1.69059 21.9504 2.10645 21.7681 2.58496C21.5858 3.06348 21.4889 3.54769 21.4775 4.0376C21.4662 4.52751 21.5516 4.96615 21.7339 5.35352C21.7795 5.44466 21.8193 5.53011 21.8535 5.60986C21.8877 5.68962 21.9048 5.74088 21.9048 5.76367C21.9048 5.78646 21.882 5.80924 21.8364 5.83203C21.7909 5.85482 21.7453 5.8776 21.6997 5.90039C21.5174 5.96875 21.3009 6.08838 21.0503 6.25928C20.7996 6.43018 20.5946 6.58398 20.4351 6.7207C20.3667 6.78906 20.1844 6.92578 19.8882 7.13086C19.592 7.33594 19.2843 7.55241 18.9653 7.78027C17.9172 8.46387 17.3361 8.99365 17.2222 9.36963C17.1082 9.74561 17.3019 10.4919 17.8032 11.6084L18.4185 12.9072L17.8032 15.4707L17.8374 18.7178C17.8374 19.6064 17.8488 20.5008 17.8716 21.4009C17.8944 22.3009 17.9058 22.9447 17.9058 23.332L17.9399 24.6992L15.855 24.665C15.2625 24.665 14.6416 24.6536 13.9922 24.6309C13.3428 24.6081 12.8472 24.5967 12.5054 24.5967C11.9129 24.5739 11.537 24.5682 11.3774 24.5796C11.2179 24.591 11.047 24.6309 10.8647 24.6992C10.6141 24.7904 10.3805 24.9385 10.1641 25.1436C9.9476 25.3486 9.78239 25.5765 9.66846 25.8271L9.46338 26.2373V28.7324C9.46338 30.0996 9.48047 30.9028 9.51465 31.1421C9.54883 31.3813 9.66846 31.5352 9.87354 31.6035C10.1014 31.6719 10.4432 31.6833 10.8989 31.6377C11.3547 31.5921 11.742 31.501 12.061 31.3643C12.4712 31.1592 12.8301 30.8914 13.1377 30.561C13.4453 30.2306 13.6789 29.849 13.8384 29.416L14.0093 29.0059H17.2222C18.9995 29.0059 20.1104 28.9831 20.5547 28.9375C20.999 28.8919 21.4035 28.778 21.7681 28.5957C22.0187 28.459 22.2694 28.2596 22.52 27.9976C22.7707 27.7355 22.9644 27.4792 23.1011 27.2285C23.1467 27.1146 23.1922 27.0177 23.2378 26.938C23.2834 26.8582 23.3062 26.8184 23.3062 26.8184C23.3745 26.75 23.4201 26.8753 23.4429 27.1943C23.4657 27.5133 23.4771 28.1172 23.4771 29.0059C23.4771 29.849 23.4714 30.4129 23.46 30.6978C23.4486 30.9826 23.4201 31.1592 23.3745 31.2275C23.3062 31.3643 23.272 31.7744 23.272 32.458C23.272 33.1416 23.2948 33.6087 23.3403 33.8594C23.4087 34.0872 23.5226 34.3151 23.6821 34.543C23.8416 34.7708 24.0239 34.9531 24.229 35.0898C24.5024 35.2949 24.8044 35.4146 25.1348 35.4487C25.4652 35.4829 26.2798 35.5 27.5786 35.5H29.9028L30.1421 35.2607C30.256 35.1468 30.3244 35.0557 30.3472 34.9873C30.37 34.9189 30.3814 34.748 30.3814 34.4746C30.3814 33.9049 30.2902 33.3979 30.1079 32.9536C29.9256 32.5093 29.6522 32.1276 29.2876 31.8086C29.1965 31.6947 29.0711 31.5807 28.9116 31.4668C28.7521 31.3529 28.6154 31.2731 28.5015 31.2275L28.0571 31.0225L28.023 27.8096C28.023 25.9639 27.9945 24.8473 27.9375 24.46C27.8805 24.0726 27.6698 23.3206 27.3052 22.2041C27.0773 21.5433 26.7469 20.3299 26.314 18.564C25.881 16.798 25.6646 15.8125 25.6646 15.6074C25.6646 15.5618 25.6816 15.4308 25.7158 15.2144C25.75 14.9979 25.7899 14.7643 25.8355 14.5137L26.0405 13.5566L30.2788 13.5225L30.6206 13.3516C31.3726 12.9414 31.7428 12.3376 31.7315 11.54C31.7201 10.7425 31.3498 10.1615 30.6206 9.79688L30.1421 9.55762L28.5015 9.52344C27.7039 9.52344 27.2254 9.51774 27.0659 9.50635C26.9064 9.49496 26.8267 9.45508 26.8267 9.38672C26.8267 9.22721 26.7811 8.97087 26.6899 8.61768C26.5988 8.26449 26.519 8.00814 26.4507 7.84863C26.4051 7.7347 26.3482 7.62077 26.2798 7.50684C26.2114 7.3929 26.1545 7.30176 26.1089 7.2334L25.9038 6.95996L26.0747 6.85742C26.576 6.53841 26.9634 6.16244 27.2368 5.72949C27.5103 5.29655 27.6926 4.74967 27.7837 4.08887C27.8976 3.3597 27.7609 2.67041 27.3735 2.021C26.9862 1.37158 26.4393 0.932941 25.7329 0.705078C25.4823 0.613934 25.1746 0.556965 24.8101 0.53418C24.4455 0.511395 24.1607 0.53418 23.9556 0.602539ZM25.2202 1.96973C25.4253 2.03809 25.619 2.14062 25.8013 2.27734C25.9836 2.41406 26.1431 2.59636 26.2798 2.82422C26.3482 2.96094 26.3937 3.07487 26.4165 3.16602C26.4393 3.25716 26.4507 3.41667 26.4507 3.64453C26.4507 3.94076 26.4051 4.22559 26.314 4.49902C26.2228 4.77246 26.1089 5.00033 25.9722 5.18262C25.7443 5.47884 25.431 5.67822 25.0322 5.78076C24.6335 5.8833 24.2518 5.85482 23.8872 5.69531C23.5454 5.53581 23.272 5.27946 23.0669 4.92627C22.8618 4.57308 22.7821 4.22559 22.8276 3.88379C22.9416 3.13184 23.2207 2.57927 23.665 2.22607C24.1094 1.87288 24.6278 1.78743 25.2202 1.96973ZM24.0581 7.2334C24.5366 7.46126 24.9012 7.81445 25.1519 8.29297C25.4025 8.77148 25.4823 9.28418 25.3911 9.83105C25.3683 9.99056 25.3569 10.1216 25.3569 10.2241C25.3569 10.3267 25.3683 10.4121 25.3911 10.4805C25.4823 10.6855 25.6361 10.8052 25.8525 10.8394C26.069 10.8735 26.7469 10.8906 27.8862 10.8906L29.9712 10.9248L30.1421 11.0957C30.3016 11.2552 30.37 11.4432 30.3472 11.6597C30.3244 11.8761 30.1991 12.0299 29.9712 12.1211C29.9028 12.1439 29.6408 12.161 29.1851 12.1724C28.7293 12.1838 27.9888 12.1895 26.9634 12.1895L24.1265 12.1553L23.7505 11.9502C23.5454 11.8363 23.3745 11.7052 23.2378 11.5571C23.1011 11.409 22.9758 11.1982 22.8618 10.9248C22.7251 10.6514 22.5827 10.4691 22.4346 10.3779C22.2865 10.2868 22.1213 10.2754 21.939 10.3438C21.6883 10.4349 21.5459 10.5944 21.5117 10.8223C21.4775 11.0501 21.5402 11.335 21.6997 11.6768C21.9276 12.1553 22.258 12.554 22.6909 12.873C23.1239 13.1921 23.6024 13.3971 24.1265 13.4883C24.2632 13.5111 24.3771 13.5339 24.4683 13.5566C24.5594 13.5794 24.6164 13.5908 24.6392 13.5908C24.6392 13.5908 24.6107 13.7332 24.5537 14.0181C24.4967 14.3029 24.4455 14.5479 24.3999 14.7529L24.3657 14.9238H21.8706C20.8908 14.9238 20.23 14.9181 19.8882 14.9067C19.5464 14.8953 19.3755 14.8669 19.3755 14.8213C19.3755 14.7985 19.4552 14.4681 19.6147 13.8301C19.7515 13.1693 19.911 12.4515 20.0933 11.6768C20.2756 10.902 20.4465 10.1956 20.606 9.55762C20.7655 8.89681 20.8566 8.53223 20.8794 8.46387C20.9933 8.16764 21.187 7.8999 21.4605 7.66064C21.7339 7.42139 22.0415 7.24479 22.3833 7.13086C22.634 7.03971 22.9131 7.00553 23.2207 7.02832C23.5283 7.05111 23.8075 7.11947 24.0581 7.2334ZM19.2046 9.38672C19.2046 9.43229 19.1875 9.52344 19.1533 9.66016C19.1191 9.79688 19.0907 9.93359 19.0679 10.0703C19.0223 10.2298 18.9824 10.3608 18.9482 10.4634C18.9141 10.5659 18.897 10.6172 18.897 10.6172C18.8742 10.6172 18.8115 10.4976 18.709 10.2583C18.6064 10.019 18.5552 9.86523 18.5552 9.79688C18.5552 9.72852 18.6463 9.62028 18.8286 9.47217C19.0109 9.32406 19.1362 9.25 19.2046 9.25C19.2046 9.25 19.2103 9.26709 19.2217 9.30127C19.2331 9.33545 19.2274 9.36393 19.2046 9.38672ZM22.9302 16.3594C22.9302 16.3822 22.896 16.6214 22.8276 17.0771C22.7593 17.5329 22.6795 18.0684 22.5884 18.6836L22.2124 20.9395H19.1704V16.291H21.0503C21.7795 16.291 22.2751 16.2967 22.5371 16.3081C22.7992 16.3195 22.9302 16.3366 22.9302 16.3594ZM24.8784 18.376C24.9924 18.9001 25.0949 19.3615 25.186 19.7603C25.2772 20.159 25.3228 20.3698 25.3228 20.3926C25.3228 20.4382 25.2658 20.478 25.1519 20.5122C25.0379 20.5464 24.8215 20.5863 24.5024 20.6318C24.2746 20.6774 24.0752 20.7173 23.9043 20.7515C23.7334 20.7856 23.648 20.7913 23.648 20.7686C23.6252 20.7686 23.7277 20.0622 23.9556 18.6494C24.1834 17.2367 24.3088 16.4961 24.3315 16.4277C24.3543 16.3594 24.3885 16.3936 24.4341 16.5303C24.4797 16.667 24.6278 17.2822 24.8784 18.376ZM26.0747 22.7852C26.3709 23.7422 26.5418 24.3859 26.5874 24.7163C26.633 25.0467 26.6558 26.0664 26.6558 27.7754L26.6899 30.8516H24.8442V28.6641L24.8101 26.5107L24.1265 25.5537L23.4771 24.6309V23.4004L23.5112 22.2041L24.5024 22.0332C24.7759 21.9876 25.0208 21.9421 25.2373 21.8965C25.4538 21.8509 25.5848 21.8395 25.6304 21.8623C25.6759 21.8623 25.7272 21.9193 25.7842 22.0332C25.8412 22.1471 25.938 22.3978 26.0747 22.7852ZM22.1099 24.2549C22.0871 25.2347 22.07 25.8215 22.0586 26.0151C22.0472 26.2088 21.9959 26.3854 21.9048 26.5449C21.8136 26.75 21.694 26.9266 21.5459 27.0747C21.3978 27.2228 21.2212 27.3424 21.0161 27.4336L20.7085 27.6045L14.0435 27.6387V26.0664L18.897 26.0322L19.0679 25.8271L19.273 25.6562L19.3071 22.3066H22.1099V24.2549ZM12.6763 27.2969C12.6763 27.8893 12.6706 28.2881 12.6592 28.4932C12.6478 28.6982 12.6079 28.8691 12.5396 29.0059C12.4256 29.3021 12.2262 29.5698 11.9414 29.8091C11.6566 30.0483 11.3661 30.2021 11.0698 30.2705L10.8306 30.3047V28.3906C10.8306 27.5475 10.8363 27.0063 10.8477 26.7671C10.8591 26.5278 10.8875 26.374 10.9331 26.3057C11.0243 26.1689 11.1439 26.0721 11.292 26.0151C11.4401 25.9582 11.6965 25.9297 12.061 25.9297H12.6763V27.2969ZM27.7837 32.3896C28.1027 32.5492 28.3648 32.7542 28.5698 33.0049C28.7749 33.2555 28.9116 33.5632 28.98 33.9277L29.0142 34.1328L25.1177 34.0986L24.9126 33.8594C24.7987 33.7682 24.7303 33.6771 24.7075 33.5859C24.6847 33.4948 24.662 33.2783 24.6392 32.9365V32.2188H26.0405C26.6786 32.2415 27.0944 32.2643 27.2881 32.2871C27.4818 32.3099 27.647 32.3441 27.7837 32.3896ZM7.17334 14.958C7.12777 14.9808 7.0708 15.0093 7.00245 15.0435C6.93409 15.0776 6.87712 15.1175 6.83155 15.1631C6.62647 15.3682 6.58659 15.6074 6.71192 15.8809C6.83724 16.1543 7.04802 16.291 7.34424 16.291C7.68604 16.291 7.89112 16.1144 7.95948 15.7612C8.02784 15.408 7.90251 15.1631 7.5835 15.0264C7.51514 15.0036 7.45817 14.9808 7.4126 14.958C7.36703 14.9352 7.34424 14.9238 7.34424 14.9238C7.32146 14.9238 7.29297 14.9295 7.25879 14.9409C7.22461 14.9523 7.19613 14.958 7.17334 14.958ZM9.90772 14.958C9.86215 14.9808 9.80518 15.0093 9.73682 15.0435C9.66846 15.0776 9.61149 15.1175 9.56592 15.1631C9.45199 15.2998 9.39502 15.4536 9.39502 15.6245C9.39502 15.7954 9.46338 15.9492 9.6001 16.0859L9.80518 16.291H14.898L15.103 16.1201C15.2625 15.9606 15.3366 15.784 15.3252 15.5903C15.3138 15.3966 15.217 15.2314 15.0347 15.0947C14.9435 15.0264 14.7783 14.9865 14.5391 14.9751C14.2998 14.9637 13.5991 14.958 12.437 14.958C11.7762 14.958 11.1952 14.958 10.6939 14.958C10.1925 14.958 9.93051 14.958 9.90772 14.958ZM4.60987 18.8203C4.33643 18.9342 4.18262 19.1108 4.14844 19.3501C4.11426 19.5894 4.2111 19.8001 4.43897 19.9824C4.50733 20.0508 4.78077 20.0907 5.25928 20.1021C5.7378 20.1134 7.02523 20.1191 9.12159 20.1191H13.6333L13.8384 19.9141C13.9751 19.7773 14.0435 19.6292 14.0435 19.4697C14.0435 19.3102 13.9751 19.1621 13.8384 19.0254L13.6333 18.7861H9.22412C7.78858 18.7633 6.67204 18.7577 5.87452 18.769C5.07699 18.7804 4.65544 18.7975 4.60987 18.8203ZM9.771 34.2012C9.56592 34.2923 9.4349 34.4518 9.37793 34.6797C9.32097 34.9076 9.37224 35.1012 9.53174 35.2607C9.57731 35.3063 9.64567 35.3519 9.73682 35.3975C9.82797 35.443 9.90772 35.4658 9.97608 35.4658C10.0672 35.4886 10.1413 35.4886 10.1982 35.4658C10.2552 35.443 10.3407 35.3747 10.4546 35.2607C10.6141 35.1012 10.6939 34.9531 10.6939 34.8164C10.6939 34.6797 10.6141 34.5316 10.4546 34.3721C10.3407 34.2581 10.2324 34.1841 10.1299 34.1499C10.0273 34.1157 9.90772 34.1328 9.771 34.2012ZM12.0952 34.2012C11.8446 34.3379 11.7192 34.543 11.7192 34.8164C11.7192 35.0898 11.8446 35.2949 12.0952 35.4316C12.1636 35.4544 12.5509 35.4715 13.2573 35.4829C13.9637 35.4943 15.0802 35.5 16.6069 35.5H20.9478L21.1528 35.2949C21.244 35.2266 21.3066 35.1582 21.3408 35.0898C21.375 35.0215 21.3921 34.9303 21.3921 34.8164C21.3921 34.7025 21.375 34.6113 21.3408 34.543C21.3066 34.4746 21.244 34.4062 21.1528 34.3379L20.9478 34.1328H16.5728C15.0689 34.1328 13.958 34.1385 13.2402 34.1499C12.5225 34.1613 12.1408 34.1784 12.0952 34.2012Z"/>
</svg>
