<svg id="svg-psychotherapy" viewBox="0 0 36 36" fill="currentColor" xmlns="http://www.w3.org/2000/svg">
<path d="M22.3958 0.499891C22.7375 0.613823 23.0566 0.727753 23.3528 0.841686C23.649 0.955618 23.9338 1.08094 24.2073 1.21766L24.1389 1.18348C24.5491 1.41135 24.9137 1.69618 25.2327 2.03797C25.5517 2.37977 25.8137 2.75575 26.0188 3.1659V3.20008C26.0872 3.31402 26.1669 3.41086 26.2581 3.49061C26.3492 3.57036 26.4517 3.62163 26.5657 3.64442C27.386 3.94064 28.0582 4.43625 28.5823 5.13124C29.1064 5.82622 29.3684 6.61805 29.3684 7.50672C29.3684 7.52951 29.3684 7.5466 29.3684 7.55799C29.3684 7.56939 29.3684 7.58648 29.3684 7.60926C29.3684 7.76877 29.4083 7.91118 29.488 8.03651C29.5678 8.16184 29.676 8.24728 29.8127 8.29286V8.32704C30.747 8.87391 31.4135 9.70562 31.8123 10.8222C32.211 11.9387 32.2281 13.0097 31.8635 14.035C31.8407 14.0578 31.8236 14.0863 31.8123 14.1205C31.8009 14.1547 31.7952 14.1832 31.7952 14.2059C31.7952 14.2743 31.8123 14.337 31.8464 14.3939C31.8806 14.4509 31.9205 14.5022 31.9661 14.5477C32.6952 15.2541 33.1567 16.0346 33.3503 16.889C33.544 17.7435 33.4928 18.6607 33.1965 19.6405C33.151 19.8228 33.0826 19.9994 32.9915 20.1703C32.9003 20.3412 32.8206 20.5178 32.7522 20.7001C32.7294 20.7229 32.718 20.7571 32.718 20.8026C32.718 20.8482 32.718 20.8938 32.718 20.9393C32.718 20.9621 32.718 20.9963 32.718 21.0419C32.718 21.0875 32.7294 21.1216 32.7522 21.1444C32.9801 21.509 33.1567 21.9078 33.282 22.3407C33.4073 22.7737 33.47 23.218 33.47 23.6737C33.47 24.3117 33.356 24.9099 33.1282 25.4682C32.9003 26.0264 32.5927 26.5106 32.2053 26.9208C32.1597 26.9664 32.1313 27.0176 32.1199 27.0746C32.1085 27.1316 32.1028 27.1942 32.1028 27.2626C32.1028 27.2626 32.1028 27.2683 32.1028 27.2797C32.1028 27.2911 32.1028 27.2968 32.1028 27.2968C32.1028 27.3651 32.1028 27.4449 32.1028 27.536C32.1028 27.6272 32.1028 27.7183 32.1028 27.8095C32.1028 28.9716 31.7496 29.997 31.0432 30.8856C30.3368 31.7743 29.4482 32.3668 28.3772 32.663H28.343C28.2519 32.6858 28.1436 32.7085 28.0183 32.7313C27.893 32.7541 27.7734 32.7655 27.6594 32.7655C27.6366 32.7655 27.6252 32.7655 27.6252 32.7655C27.6252 32.7655 27.6139 32.7655 27.5911 32.7655C27.4771 32.7655 27.3689 32.794 27.2664 32.851C27.1638 32.9079 27.0898 32.9934 27.0442 33.1073C26.3834 34.0188 25.6086 34.6739 24.72 35.0726C23.8313 35.4714 22.8287 35.591 21.7122 35.4315C20.9146 35.3176 20.2139 35.0499 19.6101 34.6283C19.0063 34.2068 18.4765 33.6542 18.0208 32.9706C17.9752 32.925 17.9353 32.8681 17.9011 32.7997C17.8669 32.7313 17.8157 32.6516 17.7473 32.5604L17.5081 32.9364C16.9384 33.7795 16.2605 34.4289 15.4744 34.8847C14.6882 35.3404 13.7711 35.5455 12.7229 35.4999C11.8342 35.4543 11.031 35.2321 10.3132 34.8334C9.59546 34.4346 8.98592 33.8707 8.48462 33.1415C8.41626 33.0276 8.32511 32.9364 8.21118 32.8681C8.09725 32.7997 7.97192 32.7655 7.8352 32.7655C6.92375 32.6744 6.14901 32.3952 5.51099 31.9281C4.87297 31.461 4.33748 30.8287 3.90454 30.0311C3.74504 29.7121 3.61971 29.3646 3.52856 28.9887C3.43742 28.6127 3.39185 28.2196 3.39185 27.8095C3.39185 27.7183 3.39185 27.6215 3.39185 27.5189C3.39185 27.4164 3.39185 27.3196 3.39185 27.2284V27.2626C3.39185 27.2626 3.39185 27.2512 3.39185 27.2284C3.39185 27.1828 3.38045 27.1259 3.35767 27.0575C3.33488 26.9891 3.31209 26.9322 3.28931 26.8866C2.60571 26.1347 2.18986 25.2916 2.04175 24.3573C1.89364 23.4231 2.04744 22.5116 2.50317 21.6229C2.57153 21.509 2.6228 21.3951 2.65698 21.2811C2.69116 21.1672 2.70825 21.0419 2.70825 20.9052C2.70825 20.7912 2.69686 20.6773 2.67407 20.5634C2.65129 20.4494 2.60571 20.3469 2.53735 20.2557C2.1272 19.3899 1.94491 18.524 1.99048 17.6581C2.03605 16.7922 2.35506 15.9605 2.94751 15.163C3.03866 15.049 3.1355 14.9351 3.23804 14.8212C3.34058 14.7072 3.43742 14.6047 3.52856 14.5136C3.57414 14.4908 3.61401 14.4509 3.64819 14.3939C3.68237 14.337 3.69946 14.2857 3.69946 14.2401C3.69946 14.2173 3.69377 14.1946 3.68237 14.1718C3.67098 14.149 3.66528 14.1262 3.66528 14.1034C3.57414 13.8755 3.50578 13.6249 3.46021 13.3515C3.41463 13.078 3.39185 12.7932 3.39185 12.497C3.39185 11.5855 3.61401 10.7538 4.05835 10.0018C4.50269 9.24989 5.08944 8.65744 5.8186 8.2245L5.85278 8.19032C5.92114 8.16753 5.98381 8.12196 6.04077 8.0536C6.09774 7.98524 6.12622 7.90549 6.12622 7.81434C6.12622 7.79156 6.12622 7.78016 6.12622 7.78016C6.12622 7.78016 6.12622 7.76877 6.12622 7.74598C6.12622 7.7232 6.12622 7.69471 6.12622 7.66053C6.12622 7.62635 6.12622 7.59787 6.12622 7.57508C6.12622 6.64084 6.39966 5.80913 6.94653 5.07997C7.49341 4.3508 8.1884 3.86089 9.03149 3.61024H9.06567C9.11125 3.58745 9.16252 3.55327 9.21948 3.5077C9.27645 3.46213 9.31632 3.41656 9.33911 3.37098C9.72648 2.59624 10.2221 1.96962 10.8259 1.4911C11.4298 1.01258 12.1646 0.693574 13.0305 0.534069C13.0533 0.534069 13.0647 0.528372 13.0647 0.516979C13.0647 0.505585 13.0761 0.499891 13.0989 0.499891H14.261C14.2838 0.522677 14.3123 0.539765 14.3464 0.551158C14.3806 0.562552 14.4205 0.568248 14.4661 0.568248C14.9674 0.682181 15.4231 0.853079 15.8333 1.08094C16.2434 1.30881 16.608 1.59364 16.927 1.93544C17.0865 2.07215 17.2289 2.22596 17.3542 2.39686C17.4796 2.56776 17.6106 2.74435 17.7473 2.92665C17.7701 2.88107 17.7986 2.8412 17.8328 2.80702C17.8669 2.77284 17.8954 2.73296 17.9182 2.68739C18.1689 2.30002 18.4651 1.95822 18.8069 1.662C19.1487 1.36577 19.5133 1.12652 19.9006 0.944225H19.9348C20.1399 0.830292 20.3507 0.744843 20.5671 0.687877C20.7836 0.630911 21.0058 0.56825 21.2336 0.499891H22.3958ZM24.5833 3.5077C24.287 2.98361 23.8484 2.56776 23.2673 2.26014C22.6863 1.95253 22.1337 1.8215 21.6096 1.86708C20.8121 1.98101 20.1228 2.32281 19.5417 2.89247C18.9607 3.46213 18.6132 4.14572 18.4993 4.94325C18.4765 5.10275 18.4594 5.26796 18.448 5.43885C18.4366 5.60975 18.4309 5.78635 18.4309 5.96864C18.4309 5.99143 18.4309 6.00852 18.4309 6.01991C18.4309 6.0313 18.4309 6.037 18.4309 6.037C18.4309 6.83452 18.4309 7.62635 18.4309 8.41249C18.4309 9.19862 18.4309 9.97906 18.4309 10.7538C18.6588 10.7082 18.8809 10.657 19.0974 10.6C19.3139 10.543 19.5361 10.5145 19.7639 10.5145C19.7639 10.5145 19.7696 10.5145 19.781 10.5145C19.7924 10.5145 19.8095 10.5145 19.8323 10.5145C19.9918 10.5145 20.1399 10.5715 20.2766 10.6854C20.4133 10.7994 20.4817 10.9475 20.4817 11.1298C20.4817 11.1298 20.4817 11.1355 20.4817 11.1469C20.4817 11.1583 20.4817 11.164 20.4817 11.164C20.4817 11.3462 20.419 11.5057 20.2937 11.6425C20.1684 11.7792 20.0146 11.8475 19.8323 11.8475C19.3538 11.9159 19.0006 12.0811 18.7727 12.3432C18.5448 12.6052 18.4309 12.9755 18.4309 13.454C18.4309 17.5783 18.4309 21.7027 18.4309 25.827V26.203L18.7043 25.9296C19.1829 25.4511 19.7354 25.0751 20.3621 24.8016C20.9887 24.5282 21.6552 24.3915 22.3616 24.3915V24.3573C22.6122 24.3573 22.8116 24.4143 22.9597 24.5282C23.1078 24.6421 23.1933 24.8016 23.2161 25.0067C23.2161 25.2346 23.1477 25.4112 23.011 25.5365C22.8743 25.6618 22.6806 25.7245 22.4299 25.7245C22.2932 25.7473 22.1565 25.7644 22.0198 25.7758C21.8831 25.7872 21.7463 25.8156 21.6096 25.8612L21.6438 25.827C20.7323 26.0549 19.969 26.5391 19.3538 27.2797C18.7385 28.0202 18.4309 28.8804 18.4309 29.8602C18.4309 30.1565 18.4594 30.447 18.5164 30.7318C18.5733 31.0167 18.6588 31.2844 18.7727 31.535V31.5009C19.2056 32.5718 19.9234 33.3295 20.926 33.7738C21.9286 34.2182 22.9654 34.2352 24.0364 33.8251C24.4921 33.6428 24.9023 33.3864 25.2668 33.056C25.6314 32.7256 25.9277 32.344 26.1555 31.911V31.8768C26.2922 31.649 26.429 31.5009 26.5657 31.4325C26.7024 31.3641 26.9075 31.3528 27.1809 31.3983C27.2037 31.3983 27.2379 31.3983 27.2834 31.3983C27.329 31.3983 27.3746 31.3983 27.4202 31.3983C27.4657 31.3983 27.5113 31.3983 27.5569 31.3983C27.6025 31.3983 27.648 31.3869 27.6936 31.3641V31.3983C28.5367 31.2388 29.2488 30.8287 29.8298 30.1679C30.4109 29.5071 30.7014 28.7209 30.7014 27.8095C30.7014 27.7183 30.6957 27.6215 30.6843 27.5189C30.6729 27.4164 30.6672 27.3196 30.6672 27.2284V27.2626C30.6445 27.217 30.6331 27.1714 30.6331 27.1259C30.6331 27.0803 30.6331 27.0347 30.6331 26.9891C30.6331 26.8069 30.6729 26.636 30.7527 26.4765C30.8324 26.3169 30.9293 26.1916 31.0432 26.1005H31.0774C31.6471 25.5536 31.9775 24.8757 32.0686 24.0668C32.1597 23.2579 32.0002 22.5572 31.5901 21.9647C31.5445 21.9875 31.4932 22.016 31.4363 22.0502C31.3793 22.0844 31.328 22.1128 31.2825 22.1356C30.9407 22.4091 30.5533 22.6198 30.1204 22.768C29.6874 22.9161 29.2317 22.9901 28.7532 22.9901C28.7532 22.9901 28.7475 22.9901 28.7361 22.9901C28.7247 22.9901 28.7076 22.9901 28.6848 22.9901C28.5025 22.9901 28.343 22.9275 28.2063 22.8021C28.0696 22.6768 28.0012 22.523 28.0012 22.3407C28.0012 22.3407 28.0012 22.3293 28.0012 22.3065C28.0012 22.1242 28.0696 21.9647 28.2063 21.828C28.343 21.6913 28.5025 21.6229 28.6848 21.6229C28.8215 21.6229 28.9526 21.6115 29.0779 21.5888C29.2032 21.566 29.3342 21.5432 29.4709 21.5204H29.4368C30.0976 21.3381 30.6672 20.9906 31.1458 20.4779C31.6243 19.9652 31.9205 19.3671 32.0344 18.6835C32.1711 17.9771 32.1199 17.3334 31.8806 16.7523C31.6414 16.1713 31.2255 15.6643 30.6331 15.2313C30.4052 15.049 30.2628 14.8781 30.2058 14.7186C30.1488 14.5591 30.1887 14.3541 30.3254 14.1034C30.69 13.397 30.821 12.7077 30.7185 12.0355C30.616 11.3633 30.3027 10.731 29.7786 10.1386C29.3684 9.61447 28.8842 9.25559 28.3259 9.0619C27.7677 8.86822 27.1581 8.86252 26.4973 9.04481C25.7909 9.24989 25.1928 9.66574 24.7029 10.2924C24.213 10.919 23.9452 11.6425 23.8997 12.4628C23.8769 12.6906 23.8085 12.8729 23.6946 13.0097C23.5806 13.1464 23.4211 13.2147 23.2161 13.2147C23.011 13.2147 22.8458 13.1407 22.7205 12.9926C22.5951 12.8445 22.5325 12.6451 22.5325 12.3944C22.5553 11.3918 22.8458 10.4861 23.4041 9.67713C23.9623 8.86822 24.6858 8.27007 25.5745 7.8827C25.8479 7.76877 26.1327 7.68332 26.429 7.62635C26.7252 7.56939 27.0328 7.5409 27.3518 7.5409C27.4657 7.5409 27.5797 7.5466 27.6936 7.55799C27.8075 7.56939 27.9101 7.57508 28.0012 7.57508C27.9784 7.48394 27.9613 7.39849 27.95 7.31874C27.9386 7.23898 27.9329 7.16493 27.9329 7.09657C27.8645 6.41297 27.5284 5.84331 26.9246 5.38758C26.3207 4.93185 25.6884 4.74956 25.0276 4.84071C24.7086 4.88628 24.4124 4.97173 24.1389 5.09706C23.8655 5.22238 23.6148 5.37619 23.387 5.55848C23.1819 5.71799 22.9825 5.79774 22.7888 5.79774C22.5951 5.79774 22.4413 5.71799 22.3274 5.55848C22.1907 5.39898 22.1394 5.22808 22.1736 5.04579C22.2078 4.8635 22.316 4.6812 22.4983 4.49891C22.7717 4.24826 23.085 4.03749 23.4382 3.86659C23.7914 3.69569 24.1617 3.57606 24.5491 3.5077H24.5833ZM17.0637 10.7538V10.4804C17.0637 9.68283 17.0637 8.87961 17.0637 8.07069C17.0637 7.26177 17.0637 6.44715 17.0637 5.62684C17.0409 4.87489 16.8643 4.20838 16.5339 3.62733C16.2035 3.04628 15.6965 2.57346 15.0129 2.20887C14.1698 1.77593 13.3552 1.73605 12.5691 2.08924C11.783 2.44243 11.2304 2.90386 10.9114 3.47352C10.9797 3.49631 11.0367 3.5134 11.0823 3.52479C11.1278 3.53618 11.1848 3.55327 11.2532 3.57606C11.6178 3.66721 11.9539 3.80393 12.2615 3.98622C12.5691 4.16851 12.8482 4.37359 13.0989 4.60145C13.1672 4.66981 13.2185 4.74956 13.2527 4.84071C13.2869 4.93185 13.304 5.023 13.304 5.11415C13.304 5.20529 13.2926 5.29074 13.2698 5.37049C13.247 5.45025 13.2014 5.51291 13.1331 5.55848C13.0875 5.62684 13.0191 5.68381 12.928 5.72938C12.8368 5.77495 12.7343 5.79774 12.6204 5.79774C12.552 5.79774 12.4836 5.78635 12.4153 5.76356C12.3469 5.74077 12.2786 5.70659 12.2102 5.66102H12.2444C12.176 5.63824 12.1134 5.60406 12.0564 5.55848C11.9994 5.51291 11.9482 5.46734 11.9026 5.42176C11.6747 5.23947 11.4184 5.09136 11.1335 4.97743C10.8487 4.8635 10.5468 4.80653 10.2278 4.80653C10.0227 4.80653 9.82332 4.82932 9.62964 4.87489C9.43595 4.92046 9.24797 4.98882 9.06567 5.07997C8.56437 5.33062 8.1827 5.66102 7.92065 6.07118C7.65861 6.48133 7.51619 6.97124 7.49341 7.5409C7.56177 7.5409 7.62443 7.5409 7.6814 7.5409C7.73836 7.5409 7.78963 7.5409 7.8352 7.5409C9.22518 7.44976 10.4215 7.90549 11.4241 8.90809C12.4267 9.9107 12.9394 11.0842 12.9622 12.4286C12.9622 12.6793 12.8995 12.8729 12.7742 13.0097C12.6488 13.1464 12.4836 13.2147 12.2786 13.2147C12.0735 13.2375 11.9083 13.1806 11.783 13.0438C11.6576 12.9071 11.595 12.7134 11.595 12.4628C11.5722 12.0298 11.4753 11.614 11.3044 11.2152C11.1335 10.8165 10.9114 10.4576 10.6379 10.1386C10.205 9.66005 9.72078 9.31825 9.1853 9.11317C8.64982 8.90809 8.05168 8.88531 7.39087 9.04481C6.43384 9.27268 5.68188 9.9107 5.13501 10.9589C4.58813 12.0071 4.58813 13.0438 5.13501 14.0692C5.27173 14.3427 5.3173 14.5591 5.27173 14.7186C5.22616 14.8781 5.07804 15.0604 4.82739 15.2655C4.66789 15.4022 4.51978 15.539 4.38306 15.6757C4.24634 15.8124 4.12101 15.9605 4.00708 16.12C3.23234 17.2138 3.15259 18.3816 3.76782 19.6234C4.38306 20.8653 5.37427 21.5318 6.74145 21.6229C6.96932 21.6457 7.15161 21.7198 7.28833 21.8451C7.42505 21.9704 7.49341 22.1356 7.49341 22.3407C7.47062 22.523 7.39657 22.6768 7.27124 22.8021C7.14591 22.9275 6.99211 22.9901 6.80981 22.9901C6.78703 22.9901 6.76994 22.9901 6.75854 22.9901C6.74715 22.9901 6.73006 22.9901 6.70728 22.9901C6.38826 22.9446 6.09204 22.8876 5.8186 22.8192C5.54517 22.7509 5.27173 22.6825 4.99829 22.6141H5.06665C4.83879 22.523 4.62231 22.4205 4.41724 22.3065C4.21216 22.1926 4.01847 22.0787 3.83618 21.9647L3.87036 21.9989C3.87036 21.9989 3.86466 22.0046 3.85327 22.016C3.84188 22.0274 3.82479 22.0445 3.802 22.0673C3.66528 22.2951 3.56274 22.5515 3.49438 22.8363C3.42603 23.1211 3.39185 23.4117 3.39185 23.7079C3.39185 24.1864 3.48869 24.6364 3.68237 25.058C3.87606 25.4795 4.13241 25.8384 4.45142 26.1347C4.58813 26.2258 4.69067 26.3454 4.75903 26.4935C4.82739 26.6417 4.86157 26.8069 4.86157 26.9891C4.86157 27.0119 4.86157 27.0404 4.86157 27.0746C4.86157 27.1088 4.85018 27.1487 4.82739 27.1942C4.82739 27.2854 4.8217 27.3822 4.8103 27.4848C4.79891 27.5873 4.79321 27.6841 4.79321 27.7753C4.79321 27.9576 4.80461 28.1342 4.82739 28.3051C4.85018 28.476 4.88436 28.6412 4.92993 28.8007L4.89575 28.7665C5.12362 29.6096 5.59644 30.2875 6.31421 30.8002C7.03198 31.3129 7.76685 31.5009 8.5188 31.3641C8.54159 31.3641 8.55868 31.3641 8.57007 31.3641C8.58146 31.3641 8.59855 31.3641 8.62134 31.3641C8.75806 31.3641 8.87769 31.3926 8.98022 31.4496C9.08276 31.5066 9.15682 31.592 9.20239 31.7059C9.24797 31.7743 9.29354 31.8484 9.33911 31.9281C9.38468 32.0079 9.43026 32.0819 9.47583 32.1503C9.88599 32.8111 10.393 33.3124 10.9968 33.6542C11.6007 33.996 12.2786 34.1555 13.0305 34.1327C14.3066 34.1099 15.349 33.5573 16.158 32.475C16.9669 31.3926 17.2232 30.2248 16.927 28.9716C16.7219 28.0145 16.2719 27.2512 15.5769 26.6815C14.8819 26.1119 14.0217 25.7929 12.9963 25.7245C12.7685 25.7245 12.5862 25.6618 12.4495 25.5365C12.3127 25.4112 12.2444 25.2346 12.2444 25.0067C12.2672 24.8016 12.3469 24.6421 12.4836 24.5282C12.6204 24.4143 12.814 24.3573 13.0647 24.3573C13.6799 24.3801 14.2724 24.494 14.842 24.6991C15.4117 24.9042 15.9244 25.189 16.3801 25.5536H16.3459C16.4599 25.6447 16.5738 25.7416 16.6877 25.8441C16.8017 25.9467 16.9156 26.0435 17.0295 26.1347C17.0295 26.0891 17.0295 26.0492 17.0295 26.015C17.0295 25.9808 17.0295 25.9524 17.0295 25.9296C17.0295 21.7369 17.0295 17.5442 17.0295 13.3515C17.0295 12.8957 16.9156 12.5425 16.6877 12.2919C16.4599 12.0412 16.1181 11.8931 15.6624 11.8475C15.4801 11.8475 15.3206 11.7792 15.1838 11.6425C15.0471 11.5057 14.9788 11.3462 14.9788 11.164C14.9788 11.164 14.9788 11.1583 14.9788 11.1469C14.9788 11.1355 14.9788 11.1298 14.9788 11.1298C15.0015 10.9475 15.0756 10.7937 15.2009 10.6683C15.3263 10.543 15.4687 10.4804 15.6282 10.4804C15.651 10.4804 15.6681 10.4804 15.6794 10.4804C15.6908 10.4804 15.7079 10.4804 15.7307 10.4804C15.9586 10.5031 16.1807 10.543 16.3972 10.6C16.6137 10.657 16.8359 10.7082 17.0637 10.7538ZM24.0364 17.2821C24.1503 17.6695 24.3668 17.9885 24.6858 18.2391C25.0048 18.4898 25.415 18.6379 25.9163 18.6835C26.053 18.6835 26.184 18.7234 26.3093 18.8031C26.4347 18.8829 26.5201 18.9911 26.5657 19.1278C26.5885 19.1506 26.6056 19.1848 26.6169 19.2304C26.6283 19.2759 26.634 19.3215 26.634 19.3671C26.634 19.5722 26.5657 19.7374 26.429 19.8627C26.2922 19.988 26.1327 20.0507 25.9504 20.0507C25.9277 20.0507 25.9163 20.0507 25.9163 20.0507C25.9163 20.0507 25.9049 20.0507 25.8821 20.0507C25.1301 20.0507 24.4693 19.8285 23.8997 19.3842C23.33 18.9398 22.9312 18.3759 22.7034 17.6923V17.6581C22.6578 17.5442 22.6008 17.4473 22.5325 17.3676C22.4641 17.2878 22.3616 17.2365 22.2249 17.2138C21.8147 17.1454 21.433 17.0201 21.0798 16.8378C20.7266 16.6555 20.4019 16.439 20.1057 16.1884H20.1399C19.9576 16.0516 19.8494 15.8921 19.8152 15.7098C19.781 15.5276 19.8209 15.3567 19.9348 15.1972C20.0032 15.106 20.0829 15.0376 20.1741 14.9921C20.2652 14.9465 20.3678 14.9237 20.4817 14.9237C20.5728 14.9237 20.6583 14.9408 20.738 14.975C20.8178 15.0092 20.8805 15.049 20.926 15.0946C21.1995 15.3225 21.5071 15.5048 21.8489 15.6415C22.1907 15.7782 22.5439 15.8694 22.9084 15.9149C22.954 15.9377 22.9996 15.9491 23.0452 15.9491C23.0907 15.9491 23.1363 15.9491 23.1819 15.9491C23.7971 15.9491 24.3611 15.801 24.8738 15.5048C25.3865 15.2085 25.7909 14.8212 26.0872 14.3427C26.2467 14.092 26.372 13.8186 26.4631 13.5223C26.5543 13.2261 26.6112 12.9185 26.634 12.5995C26.6568 12.3488 26.7309 12.1609 26.8562 12.0355C26.9815 11.9102 27.1467 11.8475 27.3518 11.8475C27.5569 11.8703 27.7164 11.9501 27.8303 12.0868C27.9443 12.2235 28.0012 12.4058 28.0012 12.6337C28.0012 13.6591 27.6594 14.6104 26.9758 15.4877C26.2922 16.365 25.4264 16.9289 24.3782 17.1796L24.0364 17.2821ZM22.5325 31.8768C22.5553 30.6236 23.0395 29.5127 23.9851 28.5443C24.9307 27.5759 26.0074 27.0917 27.2151 27.0917C27.443 27.0917 27.6309 27.1487 27.7791 27.2626C27.9272 27.3765 28.0012 27.536 28.0012 27.7411C28.0012 27.969 27.9386 28.1456 27.8132 28.2709C27.6879 28.3962 27.4999 28.4589 27.2493 28.4589C26.3378 28.5272 25.5745 28.8918 24.9592 29.5526C24.344 30.2134 23.9908 31.0451 23.8997 32.0477C23.8997 32.0477 23.8997 32.0534 23.8997 32.0648C23.8997 32.0762 23.8997 32.0819 23.8997 32.0819C23.8997 32.2642 23.8484 32.418 23.7459 32.5433C23.6433 32.6687 23.5123 32.7427 23.3528 32.7655H23.3186C23.3186 32.7655 23.3072 32.7655 23.2844 32.7655C23.2616 32.7655 23.2389 32.7655 23.2161 32.7655C23.0793 32.7655 22.9483 32.7256 22.823 32.6459C22.6977 32.5661 22.6122 32.4579 22.5667 32.3212C22.5667 32.2528 22.561 32.1845 22.5496 32.1161C22.5382 32.0477 22.5325 31.968 22.5325 31.8768ZM22.3616 21.6571C23.3414 21.7255 24.2415 22.0103 25.0618 22.5116C25.8821 23.0129 26.5771 23.7307 27.1467 24.6649C27.1923 24.7333 27.2265 24.8016 27.2493 24.87C27.2721 24.9384 27.2834 25.0067 27.2834 25.0751C27.2834 25.189 27.255 25.2973 27.198 25.3998C27.141 25.5023 27.067 25.5878 26.9758 25.6561C26.9303 25.7017 26.8733 25.7359 26.8049 25.7587C26.7366 25.7815 26.6682 25.7929 26.5999 25.7929C26.4631 25.7929 26.3435 25.7587 26.241 25.6903C26.1384 25.622 26.0644 25.5422 26.0188 25.4511C25.8137 25.1321 25.5916 24.8415 25.3523 24.5795C25.113 24.3174 24.8567 24.0839 24.5833 23.8788C24.2187 23.6281 23.8199 23.4288 23.387 23.2807C22.954 23.1325 22.4983 23.0471 22.0198 23.0243C21.7236 23.0015 21.5014 22.9218 21.3533 22.785C21.2052 22.6483 21.1425 22.4774 21.1653 22.2723C21.1653 22.0445 21.2564 21.8793 21.4387 21.7767C21.621 21.6742 21.9286 21.6343 22.3616 21.6571ZM21.8489 6.85731C21.8489 7.0396 21.7805 7.19911 21.6438 7.33583C21.5071 7.47255 21.3476 7.5409 21.1653 7.5409C20.9602 7.5409 20.795 7.47255 20.6697 7.33583C20.5444 7.19911 20.4817 7.0396 20.4817 6.85731C20.4817 6.67502 20.5444 6.51551 20.6697 6.3788C20.795 6.24208 20.9602 6.17372 21.1653 6.17372C21.3476 6.17372 21.5071 6.24208 21.6438 6.3788C21.7805 6.51551 21.8489 6.67502 21.8489 6.85731ZM11.4924 17.2821C10.9911 17.191 10.5354 17.0372 10.1252 16.8207C9.71509 16.6042 9.33911 16.3479 8.99731 16.0516C8.54159 15.6187 8.177 15.106 7.90356 14.5136C7.63013 13.9211 7.49341 13.2945 7.49341 12.6337C7.49341 12.6109 7.49341 12.5938 7.49341 12.5824C7.49341 12.571 7.49341 12.5539 7.49341 12.5311C7.49341 12.3488 7.55607 12.195 7.6814 12.0697C7.80672 11.9444 7.96053 11.8703 8.14282 11.8475C8.14282 11.8475 8.14852 11.8475 8.15991 11.8475C8.17131 11.8475 8.177 11.8475 8.177 11.8475C8.35929 11.8475 8.5188 11.9159 8.65552 12.0526C8.79224 12.1893 8.8606 12.3488 8.8606 12.5311C8.8606 12.5311 8.8606 12.5368 8.8606 12.5482C8.8606 12.5596 8.8606 12.5653 8.8606 12.5653C8.90617 13.3401 9.12264 14.0009 9.51001 14.5477C9.89738 15.0946 10.4556 15.4934 11.1848 15.744C11.3671 15.8124 11.5494 15.8637 11.7317 15.8978C11.914 15.932 12.1077 15.9491 12.3127 15.9491C12.7001 15.9491 13.0647 15.8864 13.4065 15.7611C13.7483 15.6358 14.0559 15.4592 14.3293 15.2313V15.2655C14.3977 15.1972 14.4718 15.1345 14.5515 15.0775C14.6313 15.0206 14.7167 14.9807 14.8079 14.9579C14.8306 14.9351 14.8591 14.9237 14.8933 14.9237C14.9275 14.9237 14.9674 14.9237 15.0129 14.9237C15.1952 14.9237 15.349 14.9864 15.4744 15.1117C15.5997 15.237 15.6624 15.4022 15.6624 15.6073C15.6624 15.6985 15.6453 15.7896 15.6111 15.8807C15.5769 15.9719 15.5256 16.0516 15.4573 16.12C15.1838 16.3707 14.8762 16.5871 14.5344 16.7694C14.1926 16.9517 13.828 17.077 13.4407 17.1454L13.4065 17.1796C13.247 17.1796 13.1046 17.2365 12.9792 17.3505C12.8539 17.4644 12.7685 17.6011 12.7229 17.7606C12.495 18.4214 12.102 18.9626 11.5437 19.3842C10.9854 19.8057 10.3531 20.0279 9.64673 20.0507C9.41886 20.0507 9.23088 19.9937 9.08276 19.8798C8.93465 19.7658 8.8606 19.6063 8.8606 19.4013C8.8606 19.4013 8.8606 19.3899 8.8606 19.3671C8.8606 19.1848 8.92895 19.0253 9.06567 18.8886C9.20239 18.7518 9.3619 18.6835 9.54419 18.6835C9.99992 18.6835 10.3987 18.5525 10.7405 18.2904C11.0823 18.0284 11.3215 17.6923 11.4583 17.2821H11.4924ZM13.0305 31.8768C13.0077 32.0591 12.9679 32.2186 12.9109 32.3554C12.8539 32.4921 12.7343 32.606 12.552 32.6972C12.5292 32.7199 12.4893 32.7427 12.4324 32.7655C12.3754 32.7883 12.3241 32.7997 12.2786 32.7997C12.1874 32.7997 12.1077 32.7826 12.0393 32.7484C11.9709 32.7142 11.914 32.6744 11.8684 32.6288C11.8 32.5376 11.7431 32.4408 11.6975 32.3383C11.6519 32.2357 11.6178 32.1275 11.595 32.0136C11.5266 31.3072 11.3272 30.6806 10.9968 30.1337C10.6664 29.5868 10.1822 29.1539 9.54419 28.8348C9.33911 28.7437 9.12834 28.6696 8.91187 28.6127C8.69539 28.5557 8.46183 28.5158 8.21118 28.4931C7.98332 28.4475 7.80672 28.3677 7.6814 28.2538C7.55607 28.1399 7.49341 27.9804 7.49341 27.7753C7.49341 27.5702 7.56177 27.405 7.69849 27.2797C7.8352 27.1543 8.02889 27.0917 8.27954 27.0917C9.191 27.0917 10.0569 27.3936 10.8772 27.9974C11.6975 28.6013 12.2786 29.3589 12.6204 30.2704C12.7115 30.521 12.7856 30.7831 12.8425 31.0565C12.8995 31.33 12.9622 31.6034 13.0305 31.8768ZM14.3293 22.3065C14.3293 22.5116 14.261 22.6768 14.1243 22.8021C13.9875 22.9275 13.828 22.9901 13.6458 22.9901C13.2356 23.0129 12.8425 23.0699 12.4666 23.161C12.0906 23.2522 11.7431 23.3889 11.4241 23.5712L11.4583 23.537C11.0937 23.7421 10.7576 23.9756 10.45 24.2377C10.1423 24.4997 9.88599 24.7903 9.68091 25.1093L9.64673 25.1434C9.62394 25.2118 9.58976 25.2745 9.54419 25.3314C9.49862 25.3884 9.45304 25.4397 9.40747 25.4852H9.44165C9.37329 25.5536 9.28784 25.6163 9.1853 25.6732C9.08276 25.7302 8.98592 25.7587 8.89478 25.7587C8.6897 25.7587 8.5245 25.6903 8.39917 25.5536C8.27384 25.4169 8.21118 25.2574 8.21118 25.0751C8.21118 25.0067 8.21688 24.9441 8.22827 24.8871C8.23966 24.8301 8.26815 24.7675 8.31372 24.6991V24.7333C8.45044 24.5054 8.58716 24.2946 8.72388 24.101C8.8606 23.9073 9.00871 23.7193 9.16821 23.537C9.71509 22.9673 10.3645 22.5116 11.1165 22.1698C11.8684 21.828 12.6773 21.6457 13.5432 21.6229C13.566 21.6229 13.5831 21.6229 13.5945 21.6229C13.6059 21.6229 13.623 21.6229 13.6458 21.6229C13.828 21.6229 13.9875 21.6913 14.1243 21.828C14.261 21.9647 14.3293 22.1242 14.3293 22.3065ZM15.0129 6.85731C15.0129 7.0396 14.9446 7.19911 14.8079 7.33583C14.6711 7.47255 14.5116 7.5409 14.3293 7.5409C14.1243 7.5409 13.9591 7.47255 13.8337 7.33583C13.7084 7.19911 13.6458 7.0396 13.6458 6.85731C13.6458 6.67502 13.7084 6.51551 13.8337 6.3788C13.9591 6.24208 14.1243 6.17372 14.3293 6.17372C14.5116 6.17372 14.6711 6.24208 14.8079 6.3788C14.9446 6.51551 15.0129 6.67502 15.0129 6.85731Z"/>
</svg>
