<svg id="svg-search" viewBox="0 0 19 19" fill="currentColor" xmlns="http://www.w3.org/2000/svg">
	<path d="M18.2126 16.4777L14.6801 12.9453C14.5207 12.7858 14.3046 12.6972 14.0778 12.6972H13.5003C14.4782 11.4465 15.0592 9.87341 15.0592 8.1621C15.0592 4.09109 11.7606 0.79248 7.68963 0.79248C3.61862 0.79248 0.320007 4.09109 0.320007 8.1621C0.320007 12.2331 3.61862 15.5317 7.68963 15.5317C9.40094 15.5317 10.9741 14.9507 12.2248 13.9728V14.5503C12.2248 14.777 12.3134 14.9932 12.4728 15.1526L16.0052 18.6851C16.3383 19.0181 16.8768 19.0181 17.2064 18.6851L18.209 17.6824C18.5421 17.3493 18.5421 16.8108 18.2126 16.4777ZM7.68963 12.6972C5.18466 12.6972 3.15448 10.6706 3.15448 8.1621C3.15448 5.65714 5.18112 3.62695 7.68963 3.62695C10.1946 3.62695 12.2248 5.65359 12.2248 8.1621C12.2248 10.6671 10.1981 12.6972 7.68963 12.6972Z"/>
</svg>
