<svg id="svg-time" viewBox="0 0 20 21" fill="currentColor" xmlns="http://www.w3.org/2000/svg">
<path d="M10 0.812378C4.64844 0.812378 0.3125 5.14832 0.3125 10.4999C0.3125 15.8514 4.64844 20.1874 10 20.1874C15.3516 20.1874 19.6875 15.8514 19.6875 10.4999C19.6875 5.14832 15.3516 0.812378 10 0.812378ZM13.6129 13.0389L12.8316 14.0155C12.7804 14.0796 12.717 14.133 12.6451 14.1726C12.5732 14.2122 12.4942 14.2372 12.4126 14.2463C12.331 14.2554 12.2485 14.2483 12.1696 14.2254C12.0908 14.2026 12.0172 14.1644 11.9531 14.1132L9.33594 12.171C9.15307 12.0246 9.00546 11.8389 8.90404 11.6277C8.80262 11.4166 8.74997 11.1853 8.75 10.951V4.87488C8.75 4.70912 8.81585 4.55015 8.93306 4.43294C9.05027 4.31573 9.20924 4.24988 9.375 4.24988H10.625C10.7908 4.24988 10.9497 4.31573 11.0669 4.43294C11.1842 4.55015 11.25 4.70912 11.25 4.87488V10.4999L13.5156 12.16C13.5798 12.2113 13.6331 12.2748 13.6727 12.3467C13.7123 12.4187 13.7374 12.4977 13.7464 12.5793C13.7554 12.661 13.7483 12.7436 13.7254 12.8224C13.7025 12.9013 13.6642 12.9749 13.6129 13.0389Z"/>
</svg>
