<svg id="svg-user" viewBox="0 0 17 16" fill="currentColor" xmlns="http://www.w3.org/2000/svg">
<path d="M11.35 9.5C10.4532 9.5 10.0219 10 8.55005 10C7.07817 10 6.65005 9.5 5.75005 9.5C3.4313 9.5 1.55005 11.3813 1.55005 13.7V14.5C1.55005 15.3281 2.22192 16 3.05005 16H14.05C14.8782 16 15.55 15.3281 15.55 14.5V13.7C15.55 11.3813 13.6688 9.5 11.35 9.5ZM14.05 14.5H3.05005V13.7C3.05005 12.2125 4.26255 11 5.75005 11C6.2063 11 6.94692 11.5 8.55005 11.5C10.1657 11.5 10.8907 11 11.35 11C12.8375 11 14.05 12.2125 14.05 13.7V14.5ZM8.55005 9C11.0344 9 13.05 6.98438 13.05 4.5C13.05 2.01562 11.0344 0 8.55005 0C6.06567 0 4.05005 2.01562 4.05005 4.5C4.05005 6.98438 6.06567 9 8.55005 9ZM8.55005 1.5C10.2032 1.5 11.55 2.84687 11.55 4.5C11.55 6.15312 10.2032 7.5 8.55005 7.5C6.89692 7.5 5.55005 6.15312 5.55005 4.5C5.55005 2.84687 6.89692 1.5 8.55005 1.5Z"/>
</svg>
