<svg id="svg-vk" viewBox="0 0 26 25" fill="currentColor" xmlns="http://www.w3.org/2000/svg">
<path d="M24.1245 6.4975C24.2851 5.95497 24.1245 5.55566 23.3519 5.55566H20.7955C20.1444 5.55566 19.845 5.89855 19.6844 6.28049C19.6844 6.28049 18.3823 9.45323 16.542 11.5105C15.9474 12.1051 15.674 12.2961 15.3484 12.2961C15.1878 12.2961 14.9405 12.1051 14.9405 11.5626V6.4975C14.9405 5.84646 14.7582 5.55566 14.22 5.55566H10.2009C9.79288 5.55566 9.54983 5.85948 9.54983 6.1416C9.54983 6.75792 10.47 6.90115 10.5655 8.63726V12.4046C10.5655 13.2293 10.4179 13.3812 10.0924 13.3812C9.22431 13.3812 7.11493 10.1954 5.86493 6.54959C5.6132 5.84212 5.3658 5.55566 4.71042 5.55566H2.154C1.42483 5.55566 1.27726 5.89855 1.27726 6.28049C1.27726 6.95757 2.14532 10.3213 5.31806 14.7657C7.43177 17.7996 10.4092 19.4446 13.1175 19.4446C14.7451 19.4446 14.9448 19.08 14.9448 18.4506C14.9448 15.5513 14.7972 15.2779 15.6132 15.2779C15.9908 15.2779 16.6418 15.4689 18.1609 16.9315C19.8971 18.6676 20.1835 19.4446 21.1557 19.4446H23.7122C24.4413 19.4446 24.8102 19.08 24.5976 18.3595C24.1115 16.8447 20.8259 13.7284 20.6783 13.5201C20.3007 13.034 20.4092 12.8169 20.6783 12.3829C20.6826 12.3786 23.8033 7.98622 24.1245 6.4975Z"/>
</svg>
