<svg id="svg-whatsapp" viewBox="0 0 26 25" fill="currentColor" xmlns="http://www.w3.org/2000/svg">
<path d="M20.6311 4.74121C18.5852 2.69043 15.8606 1.5625 12.9651 1.5625C6.98852 1.5625 2.12524 6.42578 2.12524 12.4023C2.12524 14.3115 2.62329 16.1768 3.57056 17.8223L2.03247 23.4375L7.77954 21.9287C9.36157 22.793 11.1438 23.2471 12.9602 23.2471H12.9651C18.9368 23.2471 23.9075 18.3838 23.9075 12.4072C23.9075 9.51172 22.677 6.79199 20.6311 4.74121ZM12.9651 21.4209C11.344 21.4209 9.75708 20.9863 8.37524 20.166L8.0481 19.9707L4.63989 20.8643L5.5481 17.5391L5.33325 17.1973C4.42993 15.7617 3.9563 14.1064 3.9563 12.4023C3.9563 7.43652 7.99927 3.39355 12.97 3.39355C15.3772 3.39355 17.6379 4.33105 19.3372 6.03516C21.0364 7.73926 22.0813 10 22.0764 12.4072C22.0764 17.3779 17.9309 21.4209 12.9651 21.4209ZM17.9065 14.6729C17.6379 14.5361 16.3049 13.8818 16.0559 13.7939C15.8069 13.7012 15.6262 13.6572 15.4456 13.9307C15.2649 14.2041 14.7473 14.8096 14.5862 14.9951C14.4299 15.1758 14.2688 15.2002 14.0002 15.0635C12.4084 14.2676 11.3635 13.6426 10.3137 11.8408C10.0354 11.3623 10.592 11.3965 11.1096 10.3613C11.1975 10.1807 11.1536 10.0244 11.0852 9.8877C11.0168 9.75098 10.4749 8.41797 10.2502 7.87598C10.0305 7.34863 9.80591 7.42188 9.63989 7.41211C9.48364 7.40234 9.30298 7.40234 9.12231 7.40234C8.94165 7.40234 8.64868 7.4707 8.39966 7.73926C8.15063 8.0127 7.45239 8.66699 7.45239 10C7.45239 11.333 8.42407 12.6221 8.55591 12.8027C8.69263 12.9834 10.4651 15.7178 13.1848 16.8945C14.9036 17.6367 15.5774 17.7002 16.4368 17.5732C16.9592 17.4951 18.0383 16.9189 18.2629 16.2842C18.4875 15.6494 18.4875 15.1074 18.4192 14.9951C18.3557 14.873 18.175 14.8047 17.9065 14.6729Z"/>
</svg>
