<svg id="svg-yandex" viewBox="0 0 26 25" fill="currentColor" xmlns="http://www.w3.org/2000/svg">
<path d="M23.9075 11.9873C23.9075 11.9873 23.9115 11.9873 23.9197 11.9873C23.9278 11.9873 23.9319 11.9873 23.9319 11.9873C23.997 11.9873 24.0621 11.9751 24.1272 11.9507C24.1923 11.9263 24.2493 11.8896 24.2981 11.8408C24.3469 11.7757 24.3795 11.7106 24.3958 11.6455C24.412 11.5804 24.4202 11.5153 24.4202 11.4502C24.29 10.0667 23.94 8.77279 23.3704 7.56836C22.7844 6.36393 22.0317 5.29785 21.1121 4.37012C20.1925 3.44238 19.1223 2.68555 17.9016 2.09961C16.6972 1.52995 15.4032 1.18001 14.0198 1.0498C13.9547 1.0498 13.8896 1.05794 13.8245 1.07422C13.7594 1.09049 13.6943 1.12305 13.6292 1.17188C13.5803 1.2207 13.5437 1.27767 13.5193 1.34277C13.4949 1.40788 13.4827 1.48112 13.4827 1.5625C13.4989 3.38542 13.6129 4.95605 13.8245 6.27441C14.0361 7.5765 14.4999 8.64665 15.2161 9.48486C15.9322 10.3231 16.9739 10.9456 18.3411 11.3525C19.7083 11.7594 21.5637 11.971 23.9075 11.9873ZM23.9075 13.0127C21.5637 13.029 19.7083 13.2406 18.3411 13.6475C16.9739 14.0544 15.9322 14.6769 15.2161 15.5151C14.4999 16.3534 14.0361 17.4235 13.8245 18.7256C13.6129 20.0439 13.4989 21.6146 13.4827 23.4375C13.4827 23.5189 13.4949 23.5921 13.5193 23.6572C13.5437 23.7223 13.5803 23.7793 13.6292 23.8281C13.678 23.8607 13.7349 23.8892 13.8 23.9136C13.8652 23.938 13.9221 23.9502 13.9709 23.9502C13.9872 23.9502 13.9994 23.9502 14.0076 23.9502C14.0157 23.9502 14.0198 23.9502 14.0198 23.9502C15.4032 23.82 16.6972 23.4701 17.9016 22.9004C19.1223 22.3145 20.1925 21.5576 21.1121 20.6299C22.0317 19.7021 22.7844 18.6361 23.3704 17.4316C23.94 16.2272 24.29 14.9333 24.4202 13.5498C24.4202 13.4847 24.412 13.4196 24.3958 13.3545C24.3795 13.2894 24.3469 13.2243 24.2981 13.1592C24.2493 13.1104 24.1923 13.0737 24.1272 13.0493C24.0621 13.0249 23.9889 13.0127 23.9075 13.0127ZM11.8713 1.0498C10.5042 1.18001 9.21834 1.53809 8.01392 2.12402C6.80949 2.70996 5.74748 3.46273 4.82788 4.38232C3.90828 5.30192 3.15552 6.36393 2.56958 7.56836C1.99992 8.77279 1.64998 10.0667 1.51978 11.4502C1.51978 11.5153 1.52791 11.5804 1.54419 11.6455C1.56047 11.7106 1.59302 11.7757 1.64185 11.8408C1.69067 11.8896 1.74764 11.9263 1.81274 11.9507C1.87785 11.9751 1.94295 11.9873 2.00806 11.9873C2.00806 11.9873 2.01213 11.9873 2.02026 11.9873C2.0284 11.9873 2.03247 11.9873 2.03247 11.9873C4.35994 11.971 6.20728 11.7594 7.57446 11.3525C8.94165 10.9456 9.98332 10.3231 10.6995 9.48486C11.4156 8.64665 11.8795 7.5765 12.0911 6.27441C12.2864 4.95605 12.4003 3.38542 12.4329 1.5625C12.4329 1.48112 12.4166 1.40788 12.384 1.34277C12.3515 1.27767 12.3108 1.2207 12.262 1.17188C12.2131 1.12305 12.1562 1.09049 12.0911 1.07422C12.026 1.05794 11.9527 1.0498 11.8713 1.0498ZM2.03247 13.0127C1.95109 12.9964 1.87785 13.0046 1.81274 13.0371C1.74764 13.0697 1.69067 13.1104 1.64185 13.1592C1.59302 13.2243 1.56047 13.2894 1.54419 13.3545C1.52791 13.4196 1.51978 13.4847 1.51978 13.5498C1.64998 14.9333 1.99992 16.2272 2.56958 17.4316C3.15552 18.6361 3.90828 19.6981 4.82788 20.6177C5.74748 21.5373 6.80949 22.29 8.01392 22.876C9.21834 23.4619 10.5042 23.82 11.8713 23.9502C11.8876 23.9502 11.8998 23.9502 11.908 23.9502C11.9161 23.9502 11.9202 23.9502 11.9202 23.9502C11.9853 23.9502 12.0463 23.938 12.1033 23.9136C12.1602 23.8892 12.2131 23.8607 12.262 23.8281C12.3108 23.7793 12.3515 23.7223 12.384 23.6572C12.4166 23.5921 12.4329 23.5189 12.4329 23.4375C12.4003 21.6146 12.2864 20.0439 12.0911 18.7256C11.8795 17.4235 11.4156 16.3534 10.6995 15.5151C9.98332 14.6769 8.94165 14.0544 7.57446 13.6475C6.20728 13.2406 4.35994 13.029 2.03247 13.0127Z"/>
</svg>
