<svg id="svg-gmail" viewBox="0 0 21 21" fill="currentColor" xmlns="http://www.w3.org/2000/svg">
<path d="M18.875 3.22986H2.625C1.58945 3.22986 0.75 4.06931 0.75 5.10486V16.3549C0.75 17.3904 1.58945 18.2299 2.625 18.2299H18.875C19.9105 18.2299 20.75 17.3904 20.75 16.3549V5.10486C20.75 4.06931 19.9105 3.22986 18.875 3.22986ZM18.875 5.10486V6.6988C17.9991 7.41205 16.6028 8.52111 13.6177 10.8586C12.9598 11.376 11.6567 12.6192 10.75 12.6047C9.84344 12.6194 8.53988 11.3758 7.88231 10.8586C4.89766 8.52146 3.50098 7.41216 2.625 6.6988V5.10486H18.875ZM2.625 16.3549V9.10478C3.52008 9.81771 4.78941 10.8181 6.72414 12.3331C7.57793 13.0052 9.07312 14.4888 10.75 14.4798C12.4186 14.4888 13.8949 13.0267 14.7755 12.3335C16.7102 10.8185 17.9799 9.81779 18.875 9.10482V16.3549H2.625Z"/>
</svg>
