<svg id="svg-head" viewBox="0 0 36 36" fill="currentColor" xmlns="http://www.w3.org/2000/svg">
<path d="M18.0145 0.5C18.3335 0.545573 18.6469 0.596842 18.9545 0.653809C19.2621 0.710775 19.5754 0.773438 19.8944 0.841797C21.1477 1.13802 22.3212 1.60514 23.4149 2.24316C24.5087 2.88118 25.4828 3.65023 26.3373 4.55029C27.1918 5.45036 27.9039 6.45866 28.4735 7.5752C29.066 8.69173 29.4761 9.88802 29.704 11.1641V11.2324C29.7723 11.597 29.8179 11.973 29.8407 12.3604C29.8635 12.7477 29.8863 13.1237 29.9091 13.4883C29.9318 13.6706 29.9546 13.8472 29.9774 14.0181C30.0002 14.189 30.0344 14.3542 30.08 14.5137V14.4795C30.8775 16.9632 31.675 19.4583 32.4725 21.9648C32.5865 22.2611 32.6036 22.4604 32.5238 22.563C32.4441 22.6655 32.2447 22.7168 31.9257 22.7168H28.8153V27.7412C28.8153 27.764 28.8153 27.7811 28.8153 27.7925C28.8153 27.8039 28.8153 27.821 28.8153 27.8438C28.8153 28.7324 28.502 29.4958 27.8754 30.1338C27.2487 30.7718 26.4797 31.0908 25.5682 31.0908C25.5682 31.0908 25.5625 31.0908 25.5511 31.0908C25.5398 31.0908 25.5227 31.0908 25.4999 31.0908C24.9758 31.0908 24.4517 31.0908 23.9276 31.0908C23.4035 31.0908 22.868 31.0908 22.3212 31.0908H21.911V31.4668C21.911 32.0365 21.911 32.6061 21.911 33.1758C21.911 33.7454 21.911 34.3151 21.911 34.8848C21.911 35.1354 21.8654 35.3006 21.7743 35.3804C21.6831 35.4601 21.5236 35.5 21.2958 35.5H8.10242C7.87455 35.5 7.72074 35.4544 7.64099 35.3633C7.56124 35.2721 7.52136 35.1126 7.52136 34.8848C7.52136 33.8594 7.52136 32.8454 7.52136 31.8428C7.52136 30.8174 7.52136 29.792 7.52136 28.7666C7.52136 27.7412 7.52136 26.7272 7.52136 25.7246C7.52136 24.6992 7.52136 23.6738 7.52136 22.6484C7.52136 22.5345 7.50427 22.432 7.47009 22.3408C7.43591 22.2497 7.38464 22.1699 7.31628 22.1016C6.35925 21.0306 5.6016 19.8742 5.04333 18.6323C4.48507 17.3905 4.16036 16.0632 4.06921 14.6504C3.97807 13.2604 4.04643 11.9616 4.27429 10.7539C4.52494 9.54622 4.9294 8.41829 5.48767 7.37012C6.04594 6.32194 6.75802 5.35352 7.6239 4.46484C8.51257 3.59896 9.54936 2.81283 10.7343 2.10645C11.4406 1.69629 12.204 1.35449 13.0243 1.08105C13.8446 0.807617 14.6991 0.636719 15.5878 0.568359H15.6561C15.7017 0.568359 15.7473 0.562663 15.7928 0.55127C15.8384 0.539876 15.8726 0.522786 15.8954 0.5H18.0145ZM21.0565 34.6455V34.2354C21.0565 33.6885 21.0565 33.1359 21.0565 32.5776C21.0565 32.0194 21.0565 31.4554 21.0565 30.8857C21.0565 30.6351 21.0964 30.4642 21.1761 30.373C21.2559 30.2819 21.4325 30.2363 21.7059 30.2363C22.344 30.2363 22.9763 30.242 23.6029 30.2534C24.2295 30.2648 24.8619 30.2591 25.4999 30.2363C26.2518 30.2135 26.8614 29.9686 27.3285 29.5015C27.7956 29.0343 28.0178 28.4362 27.995 27.707C27.995 26.8411 27.995 25.9753 27.995 25.1094C27.995 24.2435 27.995 23.3662 27.995 22.4775C27.995 22.2497 28.0349 22.1016 28.1146 22.0332C28.1944 21.9648 28.3596 21.9193 28.6102 21.8965H31.2421C31.2876 21.8965 31.3389 21.8965 31.3959 21.8965C31.4528 21.8965 31.5155 21.8965 31.5839 21.8965C31.5611 21.8509 31.544 21.811 31.5326 21.7769C31.5212 21.7427 31.5155 21.7028 31.5155 21.6572C30.718 19.2191 29.9318 16.7809 29.1571 14.3428C29.1343 14.2744 29.1172 14.2061 29.1058 14.1377C29.0944 14.0693 29.0887 13.9896 29.0887 13.8984C29.0887 13.8529 29.0887 13.7902 29.0887 13.7104C29.0887 13.6307 29.0887 13.5566 29.0887 13.4883C29.0887 13.0098 29.0603 12.5369 29.0033 12.0698C28.9463 11.6027 28.8609 11.1413 28.7469 10.6855L28.7811 10.7539C28.4621 9.40951 27.938 8.15625 27.2089 6.99414C26.4797 5.85482 25.591 4.86361 24.5428 4.02051C23.4947 3.17741 22.3326 2.5166 21.0565 2.03809C19.7577 1.58236 18.3905 1.35449 16.955 1.35449C15.3599 1.35449 13.856 1.63932 12.4432 2.20898C11.0305 2.80143 9.78292 3.59896 8.70056 4.60156C7.6182 5.60417 6.73523 6.78906 6.05164 8.15625C5.39083 9.52344 5.00346 10.9932 4.88953 12.5654V12.5996C4.86674 12.7363 4.85535 12.8844 4.85535 13.0439C4.85535 13.2035 4.85535 13.3743 4.85535 13.5566C4.85535 15.1289 5.14587 16.6157 5.72693 18.0171C6.30798 19.4185 7.09981 20.6546 8.10242 21.7256C8.19356 21.8167 8.26192 21.9136 8.3075 22.0161C8.35307 22.1187 8.37585 22.2383 8.37585 22.375C8.37585 22.375 8.37585 22.3807 8.37585 22.3921C8.37585 22.4035 8.37585 22.4092 8.37585 22.4092C8.37585 26.3285 8.37585 30.2591 8.37585 34.2012V34.6455H21.0565ZM11.1786 13.5908V6.95996C11.1786 6.7321 11.2185 6.57829 11.2982 6.49854C11.378 6.41878 11.5318 6.37891 11.7596 6.37891H24.7821C25.0328 6.37891 25.198 6.41878 25.2777 6.49854C25.3575 6.57829 25.3973 6.7321 25.3973 6.95996C25.3973 11.3805 25.3973 15.7897 25.3973 20.1875C25.3973 20.4382 25.3518 20.6034 25.2606 20.6831C25.1695 20.7629 25.01 20.8027 24.7821 20.8027H11.7938C11.5432 20.8027 11.378 20.7629 11.2982 20.6831C11.2185 20.6034 11.1786 20.4382 11.1786 20.1875V13.5908ZM12.0331 14.1035V19.9141H17.8436V14.1035H16.203C15.9979 14.1035 15.8612 14.0693 15.7928 14.001C15.7245 13.9326 15.6903 13.7959 15.6903 13.5908C15.6903 13.4541 15.6903 13.3117 15.6903 13.1636C15.6903 13.0155 15.6903 12.8617 15.6903 12.7021C15.6675 12.4515 15.5878 12.2521 15.451 12.104C15.3143 11.9559 15.132 11.8932 14.9042 11.916C14.6991 11.916 14.5282 11.9901 14.3915 12.1382C14.2548 12.2863 14.1864 12.4629 14.1864 12.668C14.1864 12.668 14.1864 12.6737 14.1864 12.6851C14.1864 12.6965 14.1864 12.7135 14.1864 12.7363C14.1864 12.873 14.1864 13.0155 14.1864 13.1636C14.1864 13.3117 14.1864 13.4655 14.1864 13.625C14.1864 13.8073 14.1465 13.9326 14.0668 14.001C13.987 14.0693 13.8674 14.1035 13.7079 14.1035H12.0331ZM12.0331 7.19922V13.249H12.5116C12.9218 13.249 13.161 13.2205 13.2294 13.1636C13.2977 13.1066 13.3433 12.8844 13.3661 12.4971C13.3889 12.0869 13.5541 11.7394 13.8617 11.4546C14.1693 11.1698 14.5282 11.0273 14.9384 11.0273C15.3713 11.0273 15.7416 11.1755 16.0492 11.4717C16.3568 11.7679 16.5106 12.1325 16.5106 12.5654C16.5106 12.6794 16.5106 12.7933 16.5106 12.9072C16.5106 13.0212 16.5106 13.1351 16.5106 13.249H17.8436C17.8436 13.1807 17.8436 13.118 17.8436 13.061C17.8436 13.0041 17.8436 12.9528 17.8436 12.9072C17.8436 12.6794 17.8436 12.4515 17.8436 12.2236C17.8436 11.9958 17.8436 11.7793 17.8436 11.5742C17.8436 11.3691 17.8835 11.2267 17.9633 11.147C18.043 11.0672 18.1854 11.0273 18.3905 11.0273C18.55 11.0273 18.7038 11.0273 18.8519 11.0273C19 11.0273 19.1538 11.0273 19.3134 11.0273C19.5412 11.0273 19.7292 10.9533 19.8773 10.8052C20.0254 10.6571 20.0995 10.4691 20.0995 10.2412C20.0995 10.2412 20.0995 10.2355 20.0995 10.2241C20.0995 10.2127 20.0995 10.207 20.0995 10.207C20.0995 10.002 20.0254 9.82536 19.8773 9.67725C19.7292 9.52913 19.5526 9.45508 19.3475 9.45508C19.3247 9.45508 19.3134 9.45508 19.3134 9.45508C19.3134 9.45508 19.302 9.45508 19.2792 9.45508C19.1652 9.45508 19.0513 9.45508 18.9374 9.45508C18.8234 9.45508 18.6981 9.45508 18.5614 9.45508C18.2424 9.45508 18.043 9.4152 17.9633 9.33545C17.8835 9.2557 17.8436 9.05632 17.8436 8.7373V7.19922H12.0331ZM18.6981 8.56641C18.8576 8.58919 19 8.60059 19.1254 8.60059C19.2507 8.60059 19.3817 8.61198 19.5184 8.63477C19.9286 8.68034 20.2704 8.85693 20.5438 9.16455C20.8173 9.47217 20.954 9.83105 20.954 10.2412C20.954 10.6514 20.8116 11.0103 20.5267 11.3179C20.2419 11.6255 19.8944 11.8021 19.4843 11.8477C19.3475 11.8704 19.2165 11.8818 19.0912 11.8818C18.9659 11.8818 18.8348 11.8932 18.6981 11.916V13.2832C18.9716 13.2832 19.245 13.2832 19.5184 13.2832C19.7919 13.2832 20.0539 13.2832 20.3046 13.2832C20.5096 13.2832 20.6521 13.3231 20.7318 13.4028C20.8116 13.4826 20.8628 13.6364 20.8856 13.8643C20.8856 14.0465 20.8913 14.2345 20.9027 14.4282C20.9141 14.6219 20.9312 14.8213 20.954 15.0264V14.958C20.954 15.1175 21.0109 15.2542 21.1249 15.3682C21.2388 15.4821 21.3755 15.5391 21.535 15.5391C21.5578 15.5391 21.5749 15.5391 21.5863 15.5391C21.5977 15.5391 21.6148 15.5391 21.6376 15.5391H21.6034C21.6262 15.5391 21.6433 15.5391 21.6547 15.5391C21.6661 15.5391 21.6831 15.5391 21.7059 15.5391C21.8654 15.5391 22.0022 15.4821 22.1161 15.3682C22.23 15.2542 22.2984 15.1175 22.3212 14.958C22.344 14.7985 22.361 14.6333 22.3724 14.4624C22.3838 14.2915 22.3895 14.1149 22.3895 13.9326C22.3895 13.9098 22.3895 13.8984 22.3895 13.8984C22.3895 13.8984 22.3895 13.887 22.3895 13.8643C22.3895 13.6364 22.4237 13.4826 22.4921 13.4028C22.5604 13.3231 22.7199 13.2832 22.9706 13.2832C23.2212 13.2832 23.4776 13.2832 23.7396 13.2832C24.0017 13.2832 24.258 13.2832 24.5087 13.2832V7.2334H18.7323L18.6981 8.56641ZM18.6981 19.9141H24.5428V14.1377H23.2098C23.2098 14.2516 23.2098 14.3542 23.2098 14.4453C23.2098 14.5365 23.2098 14.639 23.2098 14.7529C23.1871 15.1403 23.0845 15.4707 22.9022 15.7441C22.7199 16.0176 22.4693 16.1999 22.1503 16.291C21.6034 16.4505 21.1306 16.3936 20.7318 16.1201C20.333 15.8467 20.1109 15.4251 20.0653 14.8555C20.0653 14.7188 20.0596 14.5934 20.0482 14.4795C20.0368 14.3656 20.0311 14.2516 20.0311 14.1377H18.6981V19.9141Z"/>
</svg>
