<svg id="svg-mail" viewBox="0 0 20 21" fill="currentColor" xmlns="http://www.w3.org/2000/svg">
<path d="M6.875 8.74743H13.125C13.4703 8.74743 13.75 8.46775 13.75 8.12243V7.49743C13.75 7.15212 13.4703 6.87243 13.125 6.87243H6.875C6.52969 6.87243 6.25 7.15212 6.25 7.49743V8.12243C6.25 8.46775 6.52969 8.74743 6.875 8.74743ZM6.25 11.8724C6.25 12.2177 6.52969 12.4974 6.875 12.4974H13.125C13.4703 12.4974 13.75 12.2177 13.75 11.8724V11.2474C13.75 10.9021 13.4703 10.6224 13.125 10.6224H6.875C6.52969 10.6224 6.25 10.9021 6.25 11.2474V11.8724ZM10 16.6041C9.35859 16.6041 8.71719 16.4064 8.16953 16.0107L0 10.1092V18.4349C0 19.4705 0.839453 20.3099 1.875 20.3099H18.125C19.1605 20.3099 20 19.4705 20 18.4349V10.1092L11.8305 16.0107C11.2828 16.406 10.6414 16.6041 10 16.6041ZM19.2816 6.67517C18.9359 6.40408 18.6082 6.149 18.125 5.78415V4.05993C18.125 3.02439 17.2855 2.18493 16.25 2.18493H13.2207C13.102 2.099 12.9914 2.01853 12.8676 1.92868C12.2109 1.44939 10.9062 0.296263 10 0.309935C9.09375 0.296263 7.78945 1.44939 7.13242 1.92868C7.00859 2.01853 6.89805 2.099 6.7793 2.18493H3.75C2.71445 2.18493 1.875 3.02439 1.875 4.05993V5.78415C1.3918 6.14861 1.06406 6.40408 0.718359 6.67517C0.494593 6.85053 0.313639 7.07449 0.189185 7.3301C0.0647315 7.5857 3.8508e-05 7.86627 0 8.15056L0 8.56658L3.75 11.2756V4.05993H16.25V11.2756L20 8.56658V8.15056C20 7.57478 19.7352 7.03064 19.2816 6.67517Z"/>
</svg>
