<svg id="svg-neurology" viewBox="0 0 36 36" fill="currentColor" xmlns="http://www.w3.org/2000/svg">
<path d="M12.0847 5.0459C12.0391 5.11426 11.8682 5.39909 11.572 5.90039C11.2758 6.40169 10.934 6.98275 10.5466 7.64355L9.17944 10.0703H7.02612H4.90698L4.73608 10.2412C4.62215 10.3551 4.56519 10.4805 4.56519 10.6172C4.56519 10.7539 4.62215 10.8792 4.73608 10.9932L4.90698 11.1641H9.17944L11.8455 15.8125L10.3757 18.3418C9.98836 19.0482 9.65226 19.6577 9.36743 20.1704C9.0826 20.6831 8.94019 20.9622 8.94019 21.0078C8.94019 21.0534 9.0826 21.3325 9.36743 21.8452C9.65226 22.3579 9.98836 22.9674 10.3757 23.6738L11.8113 26.2031L10.5466 28.2881C10.1137 28.9945 9.79468 29.5413 9.5896 29.9287C9.38452 30.3161 9.28198 30.5326 9.28198 30.5781C9.28198 30.7832 9.38452 30.9427 9.5896 31.0566C9.79468 31.1706 9.97697 31.1706 10.1365 31.0566C10.1593 31.0339 10.3017 30.806 10.5637 30.373C10.8258 29.9401 11.1391 29.4388 11.5037 28.8691L12.7341 26.7842L15.6736 26.75C16.8129 26.7272 17.599 26.7101 18.032 26.6987C18.4649 26.6873 18.6928 26.6589 18.7156 26.6133C18.7611 26.5905 18.932 26.3285 19.2283 25.8271C19.5245 25.3258 19.8663 24.7334 20.2537 24.0498L21.6892 21.5547H27.4656L27.6365 21.3838C27.682 21.3382 27.8757 21.0306 28.2175 20.4609C28.5593 19.8913 28.9239 19.2703 29.3113 18.5981C29.6986 17.9259 30.0404 17.305 30.3367 16.7354C30.6557 16.1657 30.8152 15.8581 30.8152 15.8125C30.8152 15.7669 30.6728 15.4821 30.3879 14.958C30.1031 14.4339 29.767 13.8301 29.3796 13.1465L27.9441 10.6172L29.3796 8.08789C29.7898 7.35872 30.1316 6.73779 30.405 6.2251C30.6785 5.7124 30.8152 5.43327 30.8152 5.3877C30.8152 5.2054 30.724 5.06299 30.5417 4.96045C30.3595 4.85791 30.1772 4.85221 29.9949 4.94336C29.9721 4.96615 29.8069 5.22819 29.4993 5.72949C29.1917 6.23079 28.8328 6.83463 28.4226 7.54102L26.9871 10.0703H21.6892L20.2878 7.60938C19.9005 6.94857 19.553 6.36182 19.2454 5.84912C18.9377 5.33643 18.7725 5.05729 18.7498 5.01172L18.5789 4.875H12.2898L12.0847 5.0459ZM19.3992 8.25879C19.7638 8.89681 20.0714 9.44938 20.322 9.9165C20.5727 10.3836 20.698 10.6286 20.698 10.6514C20.6752 10.6742 20.5385 10.9134 20.2878 11.3691C20.0372 11.8249 19.7296 12.3717 19.365 13.0098L18.0662 15.2656H12.7683L11.4353 12.9414L10.1023 10.6172L11.1619 8.7373C11.4581 8.236 11.7372 7.75749 11.9993 7.30176C12.2613 6.84603 12.4265 6.5498 12.4949 6.41309L12.7683 5.96875H18.1003L19.3992 8.25879ZM28.2859 13.4541C28.6505 14.0693 28.9581 14.6105 29.2087 15.0776C29.4594 15.5448 29.5847 15.7897 29.5847 15.8125C29.5847 15.8353 29.4594 16.0802 29.2087 16.5474C28.9581 17.0145 28.6505 17.5557 28.2859 18.1709L26.9871 20.4609H21.6892L20.3904 18.2051C20.0258 17.5671 19.7182 17.0202 19.4675 16.5645C19.2169 16.1087 19.0802 15.8695 19.0574 15.8467C19.0574 15.8239 19.1827 15.5789 19.4333 15.1118C19.684 14.6447 19.9916 14.0921 20.3562 13.4541L21.6892 11.1641H26.9871L28.2859 13.4541ZM19.3992 18.6494C19.7638 19.2874 20.0714 19.8343 20.322 20.29C20.5727 20.7458 20.698 20.985 20.698 21.0078C20.698 21.0306 20.5727 21.2699 20.322 21.7256C20.0714 22.1813 19.7638 22.7282 19.3992 23.3662L18.0662 25.6562H12.7683L11.4695 23.3662C11.1049 22.751 10.7973 22.2098 10.5466 21.7427C10.296 21.2756 10.1707 21.0306 10.1707 21.0078C10.1707 20.985 10.296 20.7401 10.5466 20.2729C10.7973 19.8058 11.1049 19.2646 11.4695 18.6494L12.7683 16.3594H18.1003L19.3992 18.6494ZM13.3494 7.2334C13.3038 7.27897 13.2639 7.33594 13.2297 7.4043C13.1956 7.47266 13.1785 7.54102 13.1785 7.60938C13.1785 7.67773 13.1956 7.74609 13.2297 7.81445C13.2639 7.88281 13.3038 7.93978 13.3494 7.98535L13.5203 8.15625H15.4001C15.947 8.15625 16.4084 8.15055 16.7844 8.13916C17.1604 8.12777 17.3712 8.11068 17.4167 8.08789C17.4395 8.0651 17.4737 8.03092 17.5193 7.98535C17.5649 7.93978 17.599 7.88281 17.6218 7.81445C17.6674 7.70052 17.6674 7.5695 17.6218 7.42139C17.5763 7.27328 17.5079 7.17643 17.4167 7.13086C17.3712 7.10807 17.1604 7.09098 16.7844 7.07959C16.4084 7.0682 15.947 7.0625 15.4001 7.0625H13.5203L13.3494 7.2334ZM22.3386 18.3418C22.2931 18.3646 22.2532 18.3988 22.219 18.4443C22.1848 18.4899 22.1563 18.5469 22.1335 18.6152C22.088 18.7292 22.088 18.8602 22.1335 19.0083C22.1791 19.1564 22.2475 19.2533 22.3386 19.2988C22.3842 19.3216 22.595 19.3387 22.9709 19.3501C23.3469 19.3615 23.8083 19.3672 24.3552 19.3672H26.2351L26.406 19.1963C26.4516 19.1507 26.4915 19.0938 26.5256 19.0254C26.5598 18.957 26.5769 18.8887 26.5769 18.8203C26.5769 18.752 26.5598 18.6836 26.5256 18.6152C26.4915 18.5469 26.4516 18.4899 26.406 18.4443L26.2351 18.2734H24.3552C23.8083 18.2734 23.3412 18.2791 22.9539 18.2905C22.5665 18.3019 22.3614 18.319 22.3386 18.3418ZM13.3494 17.624C13.2354 17.738 12.8936 18.3133 12.324 19.3501C11.7543 20.3869 11.4695 20.9508 11.4695 21.042C11.4695 21.2471 11.5777 21.4009 11.7942 21.5034C12.0107 21.606 12.1986 21.5775 12.3582 21.418C12.4493 21.3268 12.7797 20.7743 13.3494 19.7603C13.919 18.7463 14.2153 18.1823 14.238 18.0684C14.2836 17.8633 14.1868 17.7038 13.9475 17.5898C13.7083 17.4759 13.5089 17.4873 13.3494 17.624Z"/>
</svg>
