<svg id="svg-phone" viewBox="0 0 20 21" fill="currentColor" xmlns="http://www.w3.org/2000/svg">
<path d="M19.4293 14.6527L15.0543 12.7777C14.8674 12.6981 14.6597 12.6813 14.4624 12.7299C14.2652 12.7785 14.089 12.8899 13.9605 13.0473L12.023 15.4144C8.98232 13.9808 6.53524 11.5337 5.10156 8.49296L7.46875 6.55546C7.62644 6.42721 7.73804 6.25107 7.78668 6.05372C7.83531 5.85637 7.81832 5.64854 7.73828 5.46171L5.86328 1.08671C5.77543 0.885303 5.62007 0.720865 5.42397 0.621745C5.22787 0.522625 5.00332 0.495037 4.78906 0.543738L0.726562 1.48124C0.519988 1.52894 0.335682 1.64525 0.203725 1.81119C0.0717677 1.97713 -4.75863e-05 2.1829 2.36571e-08 2.39491C2.36571e-08 12.4144 8.12109 20.5199 18.125 20.5199C18.3371 20.52 18.5429 20.4483 18.709 20.3163C18.875 20.1843 18.9913 20 19.0391 19.7933L19.9766 15.7308C20.025 15.5155 19.9968 15.2901 19.8969 15.0933C19.797 14.8966 19.6317 14.7407 19.4293 14.6527Z"/>
</svg>
