<svg id="svg-syringe" viewBox="0 0 105 105" fill="currentColor" xmlns="http://www.w3.org/2000/svg">
<path d="M89.5994 0C89.9415 0.205078 90.2665 0.444336 90.5744 0.717773C90.8823 0.991211 91.2073 1.23047 91.5494 1.43555H91.4467C95.5518 5.53711 99.6227 9.60449 103.659 13.6377C104.686 14.6631 105.113 15.6543 104.942 16.6113C104.771 17.5684 104.001 18.3203 102.633 18.8672C102.086 19.1406 101.521 19.397 100.94 19.6362C100.358 19.8755 99.7595 20.0977 99.1438 20.3027C98.9385 20.3711 98.7504 20.4224 98.5793 20.4565C98.4083 20.4907 98.2201 20.5078 98.0149 20.5078C97.5359 20.5078 97.1254 20.4224 96.7833 20.2515C96.4412 20.0806 96.1334 19.8584 95.8597 19.585C95.5176 19.2432 95.1926 18.9014 94.8847 18.5596C94.5769 18.2178 94.2519 17.8418 93.9098 17.4316C93.3624 17.9785 92.8664 18.4912 92.4217 18.9697C91.977 19.4482 91.5494 19.8926 91.1388 20.3027C90.6599 20.7812 90.2152 21.0205 89.8047 21.0205C89.3942 21.0205 89.0179 20.8496 88.6758 20.5078C88.3337 20.166 88.1969 19.79 88.2653 19.3799C88.3337 18.9697 88.5732 18.5596 88.9837 18.1494C89.3942 17.7393 89.8389 17.312 90.3178 16.8677C90.7968 16.4233 91.2757 15.9619 91.7546 15.4834L89.5994 13.5352L79.9525 23.2764L82.005 25.2246C82.2787 24.9512 82.5524 24.6606 82.8261 24.353C83.0997 24.0454 83.3734 23.7549 83.6471 23.4814C83.7839 23.3447 83.9378 23.2422 84.1089 23.1738C84.2799 23.1055 84.4681 23.0713 84.6733 23.0713C85.1523 23.0713 85.5286 23.2251 85.8022 23.5327C86.0759 23.8403 86.2127 24.1992 86.2127 24.6094C86.2127 24.8145 86.1785 25.0195 86.1101 25.2246C86.0417 25.4297 85.9391 25.6006 85.8022 25.7373C85.5286 26.0107 85.2378 26.2842 84.9299 26.5576C84.622 26.8311 84.2628 27.1387 83.8523 27.4805C84.2628 27.8223 84.622 28.1299 84.9299 28.4033C85.2378 28.6768 85.5286 28.9502 85.8022 29.2236C87.8548 31.2061 89.8731 33.1885 91.8572 35.1709C92.6783 36.0596 93.0032 36.9824 92.8322 37.9395C92.6611 38.8965 92.0283 39.6143 90.9336 40.0928C90.3178 40.3662 89.685 40.6226 89.035 40.8618C88.385 41.1011 87.7179 41.3574 87.0338 41.6309C86.8969 41.6992 86.7259 41.7505 86.5206 41.7847C86.3154 41.8188 86.1101 41.8359 85.9049 41.8359C85.4259 41.8359 84.9983 41.7505 84.622 41.5796C84.2457 41.4087 83.955 41.1865 83.7497 40.9131C83.3392 40.5029 82.9116 40.0757 82.4669 39.6313C82.0221 39.187 81.5945 38.7256 81.184 38.2471C80.9788 38.4521 80.8077 38.6401 80.6709 38.811C80.5341 38.9819 80.3972 39.1357 80.2604 39.2725C65.961 53.5596 51.6616 67.8467 37.3623 82.1338C36.5413 82.9541 35.686 83.501 34.7966 83.7744C33.9072 84.0479 32.9493 83.9453 31.923 83.4668C31.8546 83.4668 31.7862 83.4668 31.7178 83.4668C31.6494 83.4668 31.6152 83.4668 31.6152 83.4668C31.4783 83.4668 31.3757 83.4839 31.3073 83.5181C31.2389 83.5522 31.1362 83.5693 30.9994 83.5693C29.9047 84.1846 28.7587 84.7998 27.5614 85.415C26.3641 86.0303 25.2181 86.6797 24.1234 87.3633C23.6445 87.7051 23.2169 88.0469 22.8406 88.3887C22.4643 88.7305 22.1051 89.1064 21.763 89.5166C21.4893 89.79 21.2498 90.0293 21.0446 90.2344C20.8393 90.4395 20.6341 90.6445 20.4288 90.8496C19.5394 91.7383 18.821 92.2168 18.2737 92.2852C17.7263 92.3535 16.9395 92.0459 15.9132 91.3623C15.7764 91.499 15.6396 91.6187 15.5027 91.7212C15.3659 91.8237 15.2633 91.9434 15.1948 92.0801C11.1582 96.0449 7.15573 100.044 3.18748 104.077C2.5033 104.692 1.93885 105 1.49413 105C1.04942 105 0.553387 104.658 0.00604248 103.975V102.949C0.553387 102.402 1.08363 101.855 1.59676 101.309C2.1099 100.762 2.60593 100.215 3.08485 99.668C6.64259 96.1816 10.1661 92.6611 13.6554 89.1064C12.9713 88.0811 12.6463 87.2778 12.6805 86.6968C12.7147 86.1157 13.2107 85.415 14.1686 84.5947C15.879 83.1592 17.2645 81.5015 18.325 79.6216C19.3854 77.7417 20.4288 75.8447 21.4551 73.9307C21.4551 73.8623 21.4722 73.7939 21.5064 73.7256C21.5406 73.6572 21.5577 73.5889 21.5577 73.5205C21.5577 73.4521 21.5406 73.3667 21.5064 73.2642C21.4722 73.1616 21.4551 73.0762 21.4551 73.0078V73.1104C21.3183 72.7686 21.1985 72.4438 21.0959 72.1362C20.9933 71.8286 20.942 71.5039 20.942 71.1621C20.942 70.5469 21.0788 69.9658 21.3525 69.4189C21.6261 68.8721 21.9682 68.3936 22.3787 67.9834C23.5418 66.8213 24.7049 65.6592 25.8681 64.4971C27.0312 63.335 28.2285 62.1729 29.46 61.0107C29.8705 60.5322 30.2981 60.2759 30.7428 60.2417C31.1876 60.2075 31.581 60.3613 31.923 60.7031C32.2651 61.0449 32.4191 61.4209 32.3849 61.8311C32.3507 62.2412 32.0941 62.6855 31.6152 63.1641C30.4521 64.3262 29.3061 65.4712 28.1772 66.5991C27.0483 67.7271 25.9365 68.8721 24.8418 70.0342C24.3629 70.4443 24.1234 70.8032 24.1234 71.1108C24.1234 71.4185 24.3629 71.8115 24.8418 72.29C27.5101 74.9561 30.1442 77.5879 32.7441 80.1855C33.1546 80.5957 33.5138 80.8008 33.8216 80.8008C34.1295 80.8008 34.4887 80.5957 34.8992 80.1855L64.1479 50.9619C64.1479 50.8936 64.1821 50.8423 64.2506 50.8081C64.319 50.7739 64.3532 50.7227 64.3532 50.6543L54.2957 40.6055C54.1589 40.6738 54.0392 40.7764 53.9365 40.9131C53.8339 41.0498 53.7142 41.1865 53.5774 41.3232L37.4649 57.3193C37.3281 57.4561 37.2083 57.5757 37.1057 57.6782C37.0031 57.7808 36.8491 57.9004 36.6439 58.0371C36.5755 58.1055 36.4557 58.1738 36.2847 58.2422C36.1137 58.3105 35.9597 58.3447 35.8229 58.3447C35.6176 58.3447 35.4124 58.2935 35.2071 58.1909C35.0019 58.0884 34.8308 57.9688 34.694 57.832C34.5571 57.6953 34.4545 57.5244 34.3861 57.3193C34.3177 57.1143 34.2835 56.9092 34.2835 56.7041C34.2835 56.5674 34.3006 56.4136 34.3348 56.2427C34.369 56.0718 34.4545 55.9521 34.5914 55.8838C34.6598 55.6787 34.7624 55.5078 34.8992 55.3711C35.0361 55.2344 35.1729 55.1318 35.3097 55.0635C45.4356 44.9463 55.5615 34.8291 65.6873 24.7119C65.8242 24.5752 65.9781 24.4385 66.1492 24.3018C66.3202 24.165 66.5084 23.9941 66.7136 23.7891C66.3031 23.3789 65.8926 22.9688 65.4821 22.5586C65.0716 22.1484 64.6269 21.7383 64.1479 21.3281C63.8058 21.0547 63.5493 20.7129 63.3782 20.3027C63.2072 19.8926 63.1217 19.4824 63.1217 19.0723C63.1217 18.7988 63.1388 18.5425 63.173 18.3032C63.2072 18.064 63.2927 17.8418 63.4295 17.6367C63.6348 17.1582 63.8401 16.6455 64.0453 16.0986C64.2506 15.5518 64.4558 15.0391 64.6611 14.5605C65.2084 13.125 65.9781 12.3047 66.9702 12.0996C67.9622 11.8945 68.9714 12.3389 69.9977 13.4326C71.2292 14.6631 72.4607 15.8765 73.6923 17.0728C74.9238 18.269 76.1211 19.4824 77.2842 20.7129C78.9262 19.0723 80.5683 17.4316 82.2103 15.791C83.8523 14.1504 85.5628 12.4414 87.3416 10.6641C87.068 10.459 86.7601 10.2368 86.418 9.99756C86.0759 9.7583 85.7338 9.46777 85.3917 9.12598C85.1181 8.9209 84.8786 8.61328 84.6733 8.20312C84.4681 7.79297 84.3655 7.38281 84.3655 6.97266C84.3655 6.69922 84.3997 6.45996 84.4681 6.25488C84.5365 6.0498 84.6049 5.84473 84.6733 5.63965C84.8786 5.22949 85.0667 4.78516 85.2378 4.30664C85.4088 3.82813 85.597 3.34961 85.8022 2.87109L85.9049 2.56348C86.0417 2.0166 86.2983 1.521 86.6746 1.07666C87.0509 0.632324 87.4785 0.273438 87.9574 0H89.5994ZM67.6373 15.5859C67.432 16.1328 67.2267 16.6455 67.0215 17.124C66.8162 17.6025 66.6452 18.1152 66.5084 18.6621C66.5084 18.6621 66.5084 18.6792 66.5084 18.7134C66.5084 18.7476 66.5084 18.7646 66.5084 18.7646C66.5084 18.9014 66.5255 19.0381 66.5597 19.1748C66.5939 19.3115 66.6794 19.4141 66.8162 19.4824C72.9739 25.7031 79.1999 31.9238 85.4944 38.1445C85.5628 38.2813 85.6825 38.3838 85.8536 38.4521C86.0246 38.5205 86.1443 38.5547 86.2127 38.5547C86.7601 38.3496 87.2903 38.1445 87.8035 37.9395C88.3166 37.7344 88.8468 37.5293 89.3942 37.3242L67.6373 15.5859ZM69.9977 45.0146L60.0429 34.9658L56.7588 38.1445L66.7136 48.0908L69.9977 45.0146ZM88.9837 3.48633C88.7784 3.96484 88.5732 4.44336 88.3679 4.92188C88.1627 5.40039 87.9916 5.87891 87.8548 6.35742C87.7864 6.42578 87.7522 6.47705 87.7522 6.51123C87.7522 6.54541 87.7522 6.59668 87.7522 6.66504C87.7522 6.80176 87.7693 6.9043 87.8035 6.97266C87.8377 7.04102 87.889 7.14355 87.9574 7.28027C91.1731 10.4932 94.4229 13.7061 97.707 16.9189C97.7754 17.0557 97.878 17.1582 98.0149 17.2266C98.1517 17.2949 98.2543 17.2949 98.3227 17.2266C98.8701 17.0215 99.4003 16.8164 99.9135 16.6113C100.427 16.4062 100.957 16.2012 101.504 15.9961L88.9837 3.48633ZM18.171 88.9014C19.5394 86.9189 21.1814 85.3979 23.0971 84.3384C25.0128 83.2788 26.9285 82.2363 28.8442 81.2109L23.8155 76.1865C22.7892 78.1006 21.7288 80.0317 20.6341 81.98C19.5394 83.9282 18.0342 85.5518 16.1185 86.8506L18.171 88.9014ZM68.253 38.4521L74.6159 32.0947L72.8712 30.249L66.5084 36.6064L68.253 38.4521ZM77.2842 34.6582L70.9213 41.0156L72.4607 42.5537L78.8236 36.1963L77.2842 34.6582ZM68.8688 26.1475L62.4033 32.6074L64.0453 34.248L70.5108 27.7881L68.8688 26.1475ZM45.983 52.9102C46.1882 52.9785 46.3935 53.064 46.5987 53.1665C46.804 53.269 47.0092 53.3887 47.2145 53.5254H47.1118C47.5224 53.7988 47.8987 54.1064 48.2407 54.4482C48.5828 54.79 48.9249 55.166 49.267 55.5762C49.4039 55.7129 49.5065 55.8667 49.5749 56.0376C49.6433 56.2085 49.6775 56.3965 49.6775 56.6016C49.6775 56.8066 49.6433 57.0117 49.5749 57.2168C49.5065 57.4219 49.4039 57.5928 49.267 57.7295C49.1302 57.8662 48.9591 57.9687 48.7539 58.0371C48.5486 58.1055 48.3434 58.1396 48.1381 58.1396C47.9329 58.1396 47.7447 58.1055 47.5737 58.0371C47.4026 57.9687 47.2487 57.8662 47.1118 57.7295C46.7013 57.3877 46.3421 57.063 46.0343 56.7554C45.7264 56.4478 45.4014 56.0889 45.0593 55.6787C44.9909 55.542 44.9225 55.3711 44.8541 55.166C44.7856 54.9609 44.7514 54.7559 44.7514 54.5508C44.7514 54.4824 44.7685 54.397 44.8027 54.2944C44.837 54.1919 44.8541 54.1064 44.8541 54.0381C44.9225 53.833 45.0764 53.645 45.3159 53.4741C45.5553 53.3032 45.7777 53.1152 45.983 52.9102ZM39.928 59.0625C40.1332 59.1309 40.3385 59.2163 40.5437 59.3188C40.749 59.4214 40.92 59.541 41.0569 59.6777C41.3989 60.0195 41.741 60.3442 42.0831 60.6519C42.4252 60.9595 42.7331 61.2842 43.0068 61.626C43.212 61.7627 43.3489 61.9336 43.4173 62.1387C43.4857 62.3438 43.5199 62.5488 43.5199 62.7539C43.5199 62.959 43.4857 63.1641 43.4173 63.3691C43.3489 63.5742 43.2462 63.7451 43.1094 63.8818C42.9726 64.0186 42.8015 64.1382 42.5963 64.2407C42.391 64.3433 42.1858 64.3945 41.9805 64.3945C41.7068 64.3945 41.4845 64.3433 41.3134 64.2407C41.1424 64.1382 40.9884 64.0186 40.8516 63.8818C40.4411 63.54 40.0819 63.2153 39.774 62.9077C39.4661 62.6001 39.1754 62.2412 38.9017 61.8311C38.8333 61.6943 38.7649 61.5234 38.6964 61.3184C38.628 61.1133 38.5938 60.9082 38.5938 60.7031C38.5938 60.5664 38.6109 60.4468 38.6451 60.3442C38.6793 60.2417 38.6964 60.1563 38.6964 60.0879C38.7649 59.8828 38.9359 59.6948 39.2096 59.5239C39.4832 59.353 39.7227 59.1992 39.928 59.0625ZM33.7703 65.2148C33.9756 65.2832 34.1808 65.3857 34.3861 65.5225C34.5914 65.6592 34.7966 65.7959 35.0019 65.9326V65.8301C35.344 66.1719 35.6689 66.4966 35.9768 66.8042C36.2847 67.1118 36.6097 67.4365 36.9518 67.7783C37.0886 67.915 37.1912 68.0859 37.2597 68.291C37.3281 68.4961 37.3623 68.7012 37.3623 68.9062C37.3623 69.1113 37.3281 69.3164 37.2597 69.5215C37.1912 69.7266 37.0886 69.8975 36.9518 70.0342C36.8149 70.1709 36.6439 70.2734 36.4386 70.3418C36.2334 70.4102 36.0281 70.4443 35.8229 70.4443C35.6176 70.4443 35.4295 70.4102 35.2584 70.3418C35.0874 70.2734 34.9334 70.1709 34.7966 70.0342C34.3861 69.6924 34.0098 69.3506 33.6677 69.0088C33.3256 68.667 33.0177 68.3252 32.7441 67.9834C32.6756 67.7783 32.6072 67.5903 32.5388 67.4194C32.4704 67.2485 32.4362 67.0605 32.4362 66.8555C32.4362 66.7871 32.4362 66.7017 32.4362 66.5991C32.4362 66.4966 32.4704 66.377 32.5388 66.2402C32.6072 66.0352 32.7783 65.8643 33.0519 65.7275C33.3256 65.5908 33.5651 65.4199 33.7703 65.2148ZM55.8351 50.3467C55.8351 51.0303 55.5615 51.5259 55.0141 51.8335C54.4668 52.1411 53.9537 52.124 53.4747 51.7822C52.9958 51.3721 52.5682 50.979 52.1919 50.603C51.8156 50.2271 51.4222 49.7998 51.0117 49.3213C50.9433 49.1846 50.8748 49.0479 50.8064 48.9111C50.738 48.7744 50.7038 48.6377 50.7038 48.501C50.7038 48.2959 50.7551 48.1079 50.8577 47.937C50.9604 47.7661 51.0801 47.6123 51.2169 47.4756C51.2853 47.2705 51.4222 47.1167 51.6274 47.0142C51.8327 46.9116 52.0379 46.8604 52.2432 46.8604C52.38 46.8604 52.5169 46.8945 52.6537 46.9629C52.7905 47.0313 52.9274 47.0996 53.0642 47.168C53.4747 47.5781 53.9023 47.9883 54.3471 48.3984C54.7918 48.8086 55.2194 49.2529 55.6299 49.7314C55.6983 49.7998 55.7496 49.8853 55.7838 49.9878C55.818 50.0903 55.8351 50.21 55.8351 50.3467Z"/>
</svg>
