<svg id="svg-telegram" viewBox="0 0 26 25" fill="currentColor" xmlns="http://www.w3.org/2000/svg">
<path d="M12.97 0.390625C6.28052 0.390625 0.860596 5.81055 0.860596 12.5C0.860596 19.1895 6.28052 24.6094 12.97 24.6094C19.6594 24.6094 25.0793 19.1895 25.0793 12.5C25.0793 5.81055 19.6594 0.390625 12.97 0.390625ZM18.9172 8.68652L16.9299 18.0518C16.7834 18.7158 16.3879 18.877 15.8362 18.5645L12.8088 16.333L11.3489 17.7393C11.1877 17.9004 11.051 18.0371 10.7385 18.0371L10.9534 14.9561L16.5637 9.8877C16.8079 9.67285 16.51 9.55078 16.1877 9.76562L9.25415 14.1309L6.26587 13.1982C5.61646 12.9932 5.60181 12.5488 6.40259 12.2363L18.0774 7.73437C18.6194 7.53906 19.093 7.86621 18.9172 8.68652Z"/>
</svg>
